<?xml version="1.0" encoding="UTF-8" standalone="no"?>
<svg
   width="256"
   height="256"
   viewBox="0 0 799.9991 800"
   version="1.1"
   id="svg1"
   xml:space="preserve"
   xmlns:xlink="http://www.w3.org/1999/xlink"
   xmlns="http://www.w3.org/2000/svg"
   xmlns:svg="http://www.w3.org/2000/svg"><defs
     id="defs1"><linearGradient
       id="swatch12"><stop
         style="stop-color:#000000;stop-opacity:1;"
         offset="0"
         id="stop12" /></linearGradient><linearGradient
       id="swatch2"><stop
         style="stop-color:#5c73b3;stop-opacity:1;"
         offset="0"
         id="stop2" /></linearGradient><linearGradient
       id="swatch1"><stop
         style="stop-color:#bae9ff;stop-opacity:1;"
         offset="0"
         id="stop1" /></linearGradient><linearGradient
       id="swatch35"><stop
         style="stop-color:#5c73b3;stop-opacity:1;"
         offset="0"
         id="stop35" /></linearGradient><linearGradient
       xlink:href="#swatch1"
       id="linearGradient12"
       x1="-1730.7162"
       y1="632.03131"
       x2="-233.8412"
       y2="632.03131"
       gradientUnits="userSpaceOnUse"
       gradientTransform="matrix(0.53337875,0,0,0.53337875,923.92615,62.88793)" /></defs><g
     id="g24"><path
       style="fill:url(#linearGradient12);stroke-width:0.533378"
       d="m 4.1325488,734.20974 c -3.29893605,-3.29889 -3.33366805,-5.55599 -3.33366805,-216.68511 0,-211.12909 0.03456,-213.38622 3.33366805,-216.68511 3.306777,-3.30676 5.556004,-3.33362 279.0694412,-3.33362 h 275.73585 l 3.45459,4.39181 c 3.45364,4.39059 3.4546,4.44991 3.4546,215.62692 0,211.17702 -8.5e-4,211.23633 -3.4546,215.62695 l -3.45459,4.39178 H 283.20199 c -273.5134372,0 -275.7626642,-0.0266 -279.0694412,-3.33362 z M 540.84489,517.51938 V 320.8307 l -257.9386,0.42197 -257.93867,0.42195 -0.429005,194.1832 c -0.235958,106.80077 -0.07166,195.12078 0.364431,196.26673 0.629979,1.65439 53.842562,2.08349 258.367584,2.08349 h 257.57426 z m -298.7065,96.69951 c -7.43626,-2.24163 -14.50246,-8.21046 -18.44157,-15.57771 -3.61492,-6.76095 -3.72645,-8.55769 -4.24058,-68.3239 -0.57002,-66.27171 0.16636,-74.56481 7.47136,-84.14217 8.02388,-10.51986 24.04615,-14.75724 36.35435,-9.61455 9.85924,4.11946 103.16979,62.15938 107.85915,67.08926 11.55747,12.15029 10.49909,33.4404 -2.23198,44.89847 -4.98879,4.48994 -100.84581,63.2146 -107.01412,65.55981 -5.32904,2.0261 -13.25531,2.07052 -19.75661,0.11079 z m 60.35287,-52.61499 c 26.12724,-16.05461 48.8952,-30.57692 50.59545,-32.27181 1.88523,-1.87925 2.69949,-4.29615 2.08685,-6.19443 -1.11482,-3.4542 -95.69988,-62.36711 -102.09296,-63.58922 -8.93511,-1.70806 -8.92764,-1.76299 -8.92764,65.34756 0,65.06225 0.10641,66.00815 7.41732,65.93315 1.87931,-0.0192 24.7938,-13.17065 50.92098,-29.22525 z m 294.19172,98.94133 c -4.62633,-2.62342 -5.78278,-4.72509 -5.78278,-10.50932 0,-8.93607 5.18285,-12.50106 18.17427,-12.50106 h 8.44362 V 441.68484 245.83483 H 359.16275 100.80742 v 8.40983 c 0,6.70649 -0.828592,9.23839 -4.091193,12.50107 -4.90773,4.90762 -10.792,5.23751 -16.14256,0.90487 -3.70586,-3.00084 -3.93499,-4.25887 -3.93499,-21.60898 0,-15.46297 0.47816,-18.90081 2.97641,-21.39905 2.82963,-2.82979 16.51348,-2.9977 277.696893,-3.40781 l 274.72064,-0.43129 4.41039,3.4692 4.4104,3.4692 V 441.68484 655.6278 l -4.39181,3.45458 c -3.76432,2.96106 -6.68161,3.44739 -20.4184,3.40392 -8.81463,-0.0277 -17.52673,-0.90136 -19.36022,-1.94107 z m 75.90472,-81.66298 c -1.8692,-2.00634 -3.39854,-5.61524 -3.39854,-8.01974 0,-7.85396 5.46937,-11.66767 16.73301,-11.66767 h 9.93592 V 362.50618 165.8175 l -257.93861,0.42196 -257.93865,0.42196 -0.49428,9.396 c -0.58144,11.0532 -4.11534,15.36221 -12.40549,15.12651 -9.24462,-0.26285 -11.26896,-4.70115 -11.26896,-24.70717 0,-15.09441 0.42783,-17.74466 3.33362,-20.65045 3.30673,-3.30674 5.55605,-3.33362 279.06947,-3.33362 h 275.73585 l 3.45459,4.39179 c 3.45364,4.39061 3.45459,4.44992 3.45459,215.62695 0,211.17702 -8.4e-4,211.23633 -3.45459,215.62693 -3.37076,4.28522 -3.9153,4.39181 -22.43699,4.39181 -17.38109,0 -19.26908,-0.30772 -22.38094,-3.64792 z m 82.44209,-76.68383 c -4.62631,-2.62343 -5.78279,-4.72509 -5.78279,-10.50932 0,-8.93607 5.18285,-12.50107 18.1743,-12.50107 h 8.4436 V 283.33802 87.487998 H 517.50957 259.15424 v 8.409836 c 0,6.706496 -0.82861,9.238396 -4.09123,12.501076 -4.90767,4.90761 -10.79197,5.23751 -16.1425,0.90487 -3.70592,-3.00084 -3.935,-4.25887 -3.935,-21.608991 0,-15.46297 0.47818,-18.90081 2.97631,-21.399049 2.82968,-2.829788 16.51356,-2.997696 277.69698,-3.40781 l 274.72061,-0.43129 4.41041,3.469202 4.4104,3.469202 V 283.33802 497.28098 l -4.39178,3.45459 c -3.76433,2.96102 -6.68164,3.44735 -20.41844,3.40391 -8.81461,-0.0279 -17.52672,-0.90136 -19.36021,-1.94106 z"
       id="path12" /></g></svg>
