<?xml version="1.0" encoding="UTF-8" standalone="no"?>
<svg
   width="256"
   height="256"
   viewBox="0 0 799.9991 800"
   version="1.1"
   id="svg1"
   xml:space="preserve"
   xmlns:xlink="http://www.w3.org/1999/xlink"
   xmlns="http://www.w3.org/2000/svg"
   xmlns:svg="http://www.w3.org/2000/svg"><defs
     id="defs1"><linearGradient
       id="swatch41"><stop
         style="stop-color:#000000;stop-opacity:1;"
         offset="0"
         id="stop41" /></linearGradient><linearGradient
       id="swatch1"><stop
         style="stop-color:#bae9ff;stop-opacity:1;"
         offset="0"
         id="stop1" /></linearGradient><linearGradient
       id="swatch35"><stop
         style="stop-color:#5c73b3;stop-opacity:1;"
         offset="0"
         id="stop35" /></linearGradient><linearGradient
       xlink:href="#swatch1"
       id="linearGradient4"
       gradientUnits="userSpaceOnUse"
       x1="171.8555"
       y1="400"
       x2="628.14362"
       y2="400" /><linearGradient
       xlink:href="#swatch1"
       id="linearGradient5"
       gradientUnits="userSpaceOnUse"
       x1="150.21255"
       y1="400"
       x2="649.78656"
       y2="400" /></defs><g
     id="g30"
     style="display:inline"
     transform="matrix(1.2658908,0,0,1.2658908,-106.35622,-106.35635)"><circle
       style="display:inline;fill:#ff3434;fill-opacity:1;stroke:none;stroke-width:12.2195;stroke-dasharray:none"
       id="circle27"
       cx="399.99954"
       cy="400"
       r="195.43279"
       transform="matrix(0.84123316,0,0,0.84123316,63.506656,63.506731)" /><circle
       style="display:inline;fill:none;stroke:url(#linearGradient4);stroke-width:20.4939;stroke-dasharray:none"
       id="circle28"
       cx="399.99954"
       cy="400"
       r="217.89709"
       transform="matrix(1.3850153,0,0,1.3850153,-154.00595,-154.00613)" /><circle
       style="display:inline;fill:none;fill-opacity:1;stroke:url(#linearGradient5);stroke-width:29.5349;stroke-dasharray:none"
       id="circle30"
       cx="399.99954"
       cy="400"
       r="235.01859"
       transform="matrix(0.96098212,0,0,0.96098212,15.607123,15.607137)" /><g
       id="g35"
       style="display:inline"
       transform="matrix(0.96634577,0,0,0.96634577,34.331115,13.461712)"><circle
         style="display:none;fill:#5c73b3;fill-opacity:1;stroke:#303b5c;stroke-width:23.125;stroke-dasharray:none;stroke-opacity:1;paint-order:stroke fill markers"
         id="circle36"
         cx="552.66437"
         cy="400"
         r="140.0607" /><circle
         style="display:inline;fill:#bae9ff;fill-opacity:1;stroke:#7f9ff3;stroke-width:23.125;stroke-dasharray:none;stroke-opacity:1;paint-order:stroke fill markers"
         id="circle35"
         cx="552.66437"
         cy="400"
         r="140.0607" /><path
         id="Selection"
         fill="none"
         stroke="#000000"
         stroke-width="0.0568892"
         d="m 499.59748,312.80408 c 0,0 8.35559,0 8.35559,0 0,0 9.60004,0 9.60004,0 7.9627,0.0124 15.09873,7.3387 15.12184,15.26406 0,0 0,115.91161 0,115.91161 0,0 0,17.42229 0,17.42229 0,0 0,9.9556 0,9.9556 0.32712,8.01604 -6.86581,15.80984 -14.94406,15.82229 0,0 -17.24452,0 -17.24452,0 -6.13336,-0.009 -11.77249,-4.50668 -13.87562,-10.13338 -0.656,-1.75467 -1.05422,-3.26756 -1.05777,-5.15557 0,0 0,-121.06719 0,-121.06719 0,0 0,-22.57787 0,-22.57787 0.003,-2.47823 0.61866,-4.56001 1.73511,-6.75558 2.57957,-5.07736 6.75914,-7.83114 12.30939,-8.68626 z m 86.75592,0 c 0,0 8.88893,0 8.88893,0 0,0 9.24448,0 9.24448,0 8.5387,-0.0124 15.27651,7.65159 15.28895,15.97518 0,0 0,116.08938 0,116.08938 0,0 0,26.489 0,26.489 -0.032,6.59736 -4.27557,12.72539 -10.48892,14.98851 -2.6258,0.95467 -3.73336,0.83734 -6.40003,0.84978 0,0 -10.31116,0 -10.31116,0 0,0 -5.15557,0 -5.15557,0 -4.34314,-0.13689 -8.51916,-2.3449 -11.23561,-5.70491 -1.26934,-1.57156 -1.7209,-2.43557 -2.50312,-4.26668 -0.70934,-1.66046 -1.18579,-4.0587 -1.19467,-5.8667 0,0 0,-40.17794 0,-40.17794 0,0 0,-80.35591 0,-80.35591 0,0 0,-21.86676 0,-21.86676 0.0124,-8.29158 5.73691,-14.76984 13.86672,-16.15295 z"
         style="display:inline;fill:#000000;fill-opacity:1" /></g></g></svg>
