<?xml version="1.0" encoding="UTF-8" standalone="no"?>
<svg
   width="256"
   height="256"
   viewBox="0 0 799.9991 800"
   version="1.1"
   id="svg1"
   xml:space="preserve"
   xmlns:xlink="http://www.w3.org/1999/xlink"
   xmlns="http://www.w3.org/2000/svg"
   xmlns:svg="http://www.w3.org/2000/svg"><defs
     id="defs1"><linearGradient
       id="swatch24"><stop
         style="stop-color:#000000;stop-opacity:1;"
         offset="0"
         id="stop24" /></linearGradient><linearGradient
       id="swatch12"><stop
         style="stop-color:#000000;stop-opacity:1;"
         offset="0"
         id="stop12" /></linearGradient><linearGradient
       id="swatch2"><stop
         style="stop-color:#5c73b3;stop-opacity:1;"
         offset="0"
         id="stop2" /></linearGradient><linearGradient
       id="swatch1"><stop
         style="stop-color:#bae9ff;stop-opacity:1;"
         offset="0"
         id="stop1" /></linearGradient><linearGradient
       id="swatch35"><stop
         style="stop-color:#5c73b3;stop-opacity:1;"
         offset="0"
         id="stop35" /></linearGradient><linearGradient
       xlink:href="#swatch1"
       id="linearGradient24"
       x1="-1546.7019"
       y1="-1043.4775"
       x2="-306.0769"
       y2="-1043.4775"
       gradientUnits="userSpaceOnUse"
       gradientTransform="matrix(0.62135924,0,0,0.62135924,975.6202,1048.3744)" /></defs><g
     id="g26"><path
       style="fill:url(#linearGradient24);stroke-width:0.621359"
       d="M 416.50441,768.85352 V 737.70703 L 400.485,738.271 384.46558,738.83496 383.93084,769.41748 383.3961,800 h 16.55415 16.55416 z m 364.16601,-59.05651 4.76607,-4.76611 V 400.30338 c 0,-297.1397 -0.0924,-304.841699 -3.71194,-309.31157 l -3.71193,-4.584081 H 631.06752 484.12246 l -3.71193,4.584081 c -3.61948,4.469871 -3.71194,12.17187 -3.71194,309.31157 V 705.0309 l 4.76613,4.76611 4.76608,4.7661 h 144.83672 144.8367 z M 507.76655,400.97085 V 118.44657 H 631.06752 754.3685 V 400.97085 683.49516 H 631.06752 507.76655 Z m -189.23216,308.82616 4.76614,-4.76611 V 400.30338 c 0,-297.1397 -0.0924,-304.841699 -3.71194,-309.31157 l -3.71194,-4.584081 H 168.93159 21.986533 l -3.711938,4.584081 c -3.61948,4.469871 -3.711938,12.17187 -3.711938,309.31157 V 705.0309 l 4.766136,4.76611 4.766074,4.7661 H 168.93159 313.76832 Z M 142.27788,586.91947 45.630619,490.34378 v -56.33121 -56.33121 l 123.300971,123.28952 123.30098,123.2895 v 29.61739 29.61739 h -26.6537 -26.65371 z m -96.647261,22.31355 v -74.26215 l 72.815531,72.79612 c 40.04853,40.03788 72.81553,73.45583 72.81553,74.26214 0,0.80631 -32.767,1.46603 -72.81553,1.46603 H 45.630619 Z m 0,-332.52253 V 220.39982 L 168.93159,343.6893 292.23257,466.97883 v 56.31068 56.31068 L 168.93159,456.31068 45.630619,333.02118 Z m 0,-129.61739 v -28.64653 h 27.662602 27.662659 l 95.63831,95.62377 95.63838,95.6237 v 56.3123 56.3123 L 168.93159,299.02909 45.630619,175.73961 Z m 172.815541,44.169 -72.7961,-72.81553 h 73.29126 73.29125 v 72.81553 c 0,40.0486 -0.22282,72.81553 -0.49516,72.81553 -0.27235,0 -33.25341,-32.76693 -73.29125,-72.81553 z m 196.68925,485.18782 c 0.75295,-0.75295 1.369,-14.76707 1.369,-31.14246 V 615.53399 H 399.95025 383.3961 l 0.53474,30.58252 0.53474,30.58253 14.65041,0.55995 c 8.05772,0.30796 15.26647,-0.0561 16.01942,-0.80907 z m 0.93288,-153.63439 -0.53475,-30.58252 h -15.53398 -15.53398 l -0.53474,30.58252 -0.53474,30.58253 h 16.60346 16.60347 z m 0.43612,-122.81555 v -31.06797 h -16.50485 -16.50485 v 31.06797 31.06799 h 16.50485 16.50485 z m -1.369,-92.48212 c 0.75295,-0.75296 1.369,-14.76704 1.369,-31.14247 V 246.60191 H 399.95025 383.3961 l 0.53474,30.58255 0.53474,30.58249 14.65041,0.55998 c 8.05772,0.308 15.26647,-0.0559 16.01942,-0.80907 z m 0.93288,-153.63437 -0.53476,-30.58256 h -15.53398 -15.53397 l -0.53474,30.58256 -0.53474,30.5825 h 16.60346 16.60347 z M 416.50441,31.146468 V -3.3999999e-5 H 399.95025 383.3961 L 383.93084,30.582522 l 0.53474,30.582494 16.01941,0.564008 16.01942,0.563945 z"
       id="path24" /></g></svg>
