<?xml version="1.0" encoding="UTF-8" standalone="no"?>
<svg
   width="256"
   height="256"
   viewBox="0 0 799.9991 800"
   version="1.1"
   id="svg1"
   xml:space="preserve"
   sodipodi:docname="StreamController_Workspace.svg"
   inkscape:version="1.3.2 (091e20ef0f, 2023-11-25, custom)"
   inkscape:export-filename="Exported/buffer_off.svg"
   inkscape:export-xdpi="96"
   inkscape:export-ydpi="96"
   xmlns:inkscape="http://www.inkscape.org/namespaces/inkscape"
   xmlns:sodipodi="http://sodipodi.sourceforge.net/DTD/sodipodi-0.dtd"
   xmlns="http://www.w3.org/2000/svg"
   xmlns:svg="http://www.w3.org/2000/svg"><sodipodi:namedview
     id="namedview1"
     pagecolor="#7f9ff3"
     bordercolor="#000000"
     borderopacity="0.25"
     inkscape:showpageshadow="true"
     inkscape:pageopacity="0.0"
     inkscape:pagecheckerboard="false"
     inkscape:deskcolor="#d1d1d1"
     inkscape:document-units="in"
     showguides="true"
     inkscape:lockguides="true"
     inkscape:zoom="2.8284271"
     inkscape:cx="141.0678"
     inkscape:cy="132.7593"
     inkscape:window-width="1920"
     inkscape:window-height="1013"
     inkscape:window-x="1920"
     inkscape:window-y="0"
     inkscape:window-maximized="1"
     inkscape:current-layer="layer4"
     showgrid="false"
     showborder="true"
     borderlayer="true"
     shape-rendering="auto"
     inkscape:clip-to-page="false"><sodipodi:guide
       position="0,800"
       orientation="0,256"
       inkscape:locked="true"
       id="guide1" /><sodipodi:guide
       position="799.9991,800"
       orientation="256,0"
       inkscape:locked="true"
       id="guide2" /><sodipodi:guide
       position="799.9991,0"
       orientation="0,-256"
       inkscape:locked="true"
       id="guide3" /><sodipodi:guide
       position="0,0"
       orientation="-256,0"
       inkscape:locked="true"
       id="guide4" /></sodipodi:namedview><defs
     id="defs1"><linearGradient
       id="swatch35"
       inkscape:swatch="solid"><stop
         style="stop-color:#000000;stop-opacity:1;"
         offset="0"
         id="stop35" /></linearGradient></defs><g
     inkscape:groupmode="layer"
     id="layer5"
     inkscape:label="ReplayBuffer"><g
       id="g15"
       inkscape:label="On"
       style="display:inline"><path
         id="path6"
         fill="none"
         stroke="#000000"
         stroke-width="0.644647"
         d="m 359.83771,463.21265 c 0,0 0,-368.658151 0,-368.658151 0.0347,-12.691517 0.58426,-25.826243 8.84372,-36.221165 17.74813,-22.361257 50.86676,-20.568309 65.67346,3.988744 5.62073,9.286968 6.04376,21.676297 6.06387,32.232421 0,0 0,368.658151 0,368.658151 0,0 54.39212,-54.39218 54.39212,-54.39218 11.28134,-11.28134 34.58952,-37.87306 48.3487,-42.78851 32.61515,-11.62379 60.71778,16.92201 52.51865,46.81758 -4.49242,16.39821 -28.10262,36.0197 -40.43148,48.34859 0,0 -100.72623,100.7263 -100.72623,100.7263 -15.37119,15.37085 -30.80237,37.14784 -54.39246,37.10755 -22.70346,-0.0208 -39.58542,-22.30075 -54.39211,-37.10755 0,0 -98.71165,-98.71178 -98.71165,-98.71178 -11.62392,-11.62375 -36.66444,-33.27994 -41.01574,-48.3486 -9.22653,-31.84961 19.41979,-60.41559 51.08833,-49.13425 12.81222,4.57294 37.59095,32.33312 48.3487,43.09067 z M 71.760435,681.90956 c 0,0 72.523055,-1.12814 72.523055,-1.12814 0,0 139.00234,0 139.00234,0 0,0 429.09385,0 429.09385,0 11.01955,0.0208 18.53386,-0.18134 28.02218,6.54724 19.56091,13.83976 22.07897,45.00452 3.78715,60.81851 -9.58888,8.32 -21.81718,9.16613 -33.82357,9.18624 0,0 -620.474069,0 -620.474069,0 C 75.447025,757.3126 63.158391,755.74195 52.743219,744.29945 33.22253,722.9253 46.61936,690.69288 71.760435,681.90956 Z"
         inkscape:label="Save_Icon"
         style="display:inline;fill:#bae9ff;fill-opacity:1;stroke:none" /></g></g></svg>
