<?xml version="1.0" encoding="UTF-8" standalone="no"?>
<svg
   width="256"
   height="256"
   viewBox="0 0 799.9991 800"
   version="1.1"
   id="svg1"
   xml:space="preserve"
   xmlns="http://www.w3.org/2000/svg"
   xmlns:svg="http://www.w3.org/2000/svg"><defs
     id="defs1"><linearGradient
       id="swatch35"><stop
         style="stop-color:#000000;stop-opacity:1;"
         offset="0"
         id="stop35" /></linearGradient></defs><g
     id="layer1"
     style="display:none"><g
       id="g8"
       style="display:none"
       transform="matrix(0.98511759,0,0,0.96017175,-24.35426,-32.815712)"><path
         id="Selection-0-5"
         fill="none"
         stroke="#000000"
         stroke-width="1"
         d="m 378.96425,74.13186 -20.31456,3.43053 c -15.39844,4.24384 -40.58849,18.72713 -53.83359,28.14282 -61.75627,43.9295 -95.32608,115.05293 -94.46272,191.5672 l 1.74706,18.76883 c 2.89482,24.15966 6.03342,38.74721 14.91089,61.52006 1.59469,4.08744 8.61337,20.93768 11.40662,22.95011 2.03146,1.44937 7.00853,1.00101 9.51738,1.03229 9.31422,0.1147 21.39123,2.50251 30.47184,4.82776 51.10128,13.05476 91.42569,52.51102 108.00237,103.61438 4.51999,13.92021 5.89122,25.13981 6.86632,39.62309 0.24378,3.59736 1.00557,5.59936 0.74148,9.38441 -2.02129,29.19596 -6.65301,51.36404 -21.01541,77.16075 -20.54818,36.89119 -57.541,64.05386 -97.64195,73.78237 -8.45085,2.05414 -16.76967,2.85703 -25.3932,3.47223 -4.45904,0.32324 -6.04358,1.1157 -11.17301,0.90716 -31.5282,-1.25125 -62.52822,-10.58353 -88.36834,-29.60262 l -29.45612,-26.66216 c 3.04718,8.17486 9.4158,15.36958 14.95152,21.89697 14.36239,16.95451 34.07768,32.49093 53.10226,43.63753 88.00269,51.5413 201.1548,36.31769 272.20498,-38.42397 6.51082,-6.85062 13.86469,-16.23504 19.43088,-23.9824 1.68611,-2.35653 5.76934,-7.7265 6.2061,-10.42712 0.55865,-3.50352 -4.83486,-12.02248 -6.57176,-15.6407 -4.93644,-10.27072 -8.48133,-21.19835 -11.05112,-32.3241 -8.71495,-37.72535 -3.56521,-77.76552 15.22576,-111.57027 9.77131,-17.56972 22.43744,-32.81418 37.71399,-45.55613 55.62127,-46.37987 135.79269,-45.38929 190.95689,1.19912 13.92563,11.7618 25.92138,26.35978 35.0934,42.27158 13.84438,24.0241 20.70054,51.51002 21.74674,79.24618 0.27425,7.20514 -2.28538,27.96556 -3.81913,35.45224 -1.03605,5.01544 -4.1848,11.88692 -3.25033,16.6834 17.14549,-30.91643 20.71069,-65.13827 20.31456,-100.10043 -0.22346,-19.15464 -5.12943,-43.27259 -10.82766,-61.52006 -22.20382,-71.1443 -74.93027,-125.8763 -144.57875,-148.08608 -17.62288,-5.63065 -30.53278,-7.72651 -48.75495,-9.54083 -4.3981,-0.43794 -6.40924,-1.05314 -11.173,-0.84459 -7.29293,0.31281 -8.73527,5.8809 -12.62551,11.44898 -6.64286,9.49912 -14.49444,18.38303 -22.96561,26.20338 -21.87878,20.20777 -47.23136,32.44922 -76.13898,37.48552 -5.63729,0.98015 -8.2985,1.92902 -14.22019,2.00201 H 423.65629 C 402.38694,377.53 374.9826,368.09347 356.61824,357.30139 312.75909,331.52553 284.02415,285.33335 280.34721,233.66693 L 279.4229,223.2398 c -0.20315,-18.96695 4.35747,-43.03276 11.60977,-60.47734 11.67072,-28.11154 30.00461,-51.52044 54.41256,-69.11101 6.59207,-4.75477 13.08257,-8.49812 20.31456,-12.1059 4.50983,-2.25226 9.54784,-3.82676 13.20446,-7.41369 z M 120.96931,657.00835 h -1.01573 l 1.01573,1.04272 z"
         style="display:inline;fill:#ffffff;fill-opacity:1;stroke:#ffffff;stroke-width:3.0874;stroke-dasharray:none;stroke-opacity:1" /><path
         id="Selection-0"
         fill="none"
         stroke="#000000"
         stroke-width="1"
         d="m 421.62484,34.946711 c 0,0 30.47184,0.604773 30.47184,0.604773 0,0 12.18874,0.948869 12.18874,0.948869 30.6953,2.200124 61.11636,8.362557 90.3998,18.164058 19.82701,6.642081 39.20711,14.30602 57.8965,23.898979 101.03448,51.85412 178.39233,147.66899 208.65087,259.37482 7.34372,27.10011 11.97544,54.32534 13.88501,82.37432 0,0 0.92431,10.42713 0.92431,10.42713 0,0 0,38.58038 0,38.58038 0,0 -1.85878,22.93968 -1.85878,22.93968 -3.23002,33.11656 -9.47674,64.42923 -20.17236,95.92958 -40.41582,118.93183 -133.31432,214.29835 -249.16827,255.7879 -30.68515,10.97976 -61.18746,17.39245 -93.44699,20.70827 0,0 -22.34602,1.90817 -22.34602,1.90817 0,0 -37.58194,0 -37.58194,0 0,0 -21.33029,-1.91859 -21.33029,-1.91859 -35.82473,-3.93103 -69.97351,-11.40728 -103.60427,-24.9834 C 238.24528,820.21377 197.13876,794.85499 158.55125,759.01695 90.80219,696.09966 46.099983,610.62848 31.006263,518.32754 28.96465,505.7837 26.526902,481.86387 26.506588,469.32004 c 0,0 -1.015728,-20.85426 -1.015728,-20.85426 0,0 0.975099,-10.42713 0.975099,-10.42713 0,0 0,-10.42713 0,-10.42713 0,0 1.899411,-21.89697 1.899411,-21.89697 C 32.875203,359.47023 45.541333,314.26863 64.880796,272.2473 113.86937,165.79676 205.56931,86.237765 314.97338,52.109764 c 18.31358,-5.703639 48.10489,-12.34572 67.03806,-14.295593 0,0 26.40893,-2.262687 26.40893,-2.262687 5.22084,-0.06256 7.85158,0.177261 13.20447,-0.604773 z M 378.96425,74.13186 c 0,0 -20.31456,3.430525 -20.31456,3.430525 -15.39844,4.243842 -40.58849,18.727132 -53.83359,28.142825 -61.75627,43.9295 -95.32608,115.05293 -94.46272,191.5672 0,0 1.74706,18.76883 1.74706,18.76883 2.89482,24.15966 6.03342,38.74721 14.91089,61.52006 1.59469,4.08744 8.61337,20.93768 11.40662,22.95011 2.03146,1.44937 7.00853,1.00101 9.51738,1.03229 9.31422,0.1147 21.39123,2.50251 30.47184,4.82776 51.10128,13.05476 91.42569,52.51102 108.00237,103.61438 4.51999,13.92021 5.89122,25.13981 6.86632,39.62309 0.24378,3.59736 1.00557,5.59936 0.74148,9.38441 -2.02129,29.19596 -6.65301,51.36404 -21.01541,77.16075 -20.54818,36.89119 -57.541,64.05386 -97.64195,73.78237 -8.45085,2.05414 -16.76967,2.85703 -25.3932,3.47223 -4.45904,0.32324 -6.04358,1.1157 -11.17301,0.90716 -31.5282,-1.25125 -62.52822,-10.58353 -88.36834,-29.60262 0,0 -29.45612,-26.66216 -29.45612,-26.66216 3.04718,8.17486 9.4158,15.36958 14.95152,21.89697 14.36239,16.95451 34.07768,32.49093 53.10226,43.63753 88.00269,51.5413 201.1548,36.31769 272.20498,-38.42397 6.51082,-6.85062 13.86469,-16.23504 19.43088,-23.9824 1.68611,-2.35653 5.76934,-7.7265 6.2061,-10.42712 0.55865,-3.50352 -4.83486,-12.02248 -6.57176,-15.6407 -4.93644,-10.27072 -8.48133,-21.19835 -11.05112,-32.3241 -8.71495,-37.72535 -3.56521,-77.76552 15.22576,-111.57027 9.77131,-17.56972 22.43744,-32.81418 37.71399,-45.55613 55.62127,-46.37987 135.79269,-45.38929 190.95689,1.19912 13.92563,11.7618 25.92138,26.35978 35.0934,42.27158 13.84438,24.0241 20.70054,51.51002 21.74674,79.24618 0.27425,7.20514 -2.28538,27.96556 -3.81913,35.45224 -1.03605,5.01544 -4.1848,11.88692 -3.25033,16.6834 17.14549,-30.91643 20.71069,-65.13827 20.31456,-100.10043 -0.22346,-19.15464 -5.12943,-43.27259 -10.82766,-61.52006 -22.20382,-71.1443 -74.93027,-125.8763 -144.57875,-148.08608 -17.62288,-5.63065 -30.53278,-7.72651 -48.75495,-9.54083 -4.3981,-0.43794 -6.40924,-1.05314 -11.173,-0.84459 -7.29293,0.31281 -8.73527,5.8809 -12.62551,11.44898 -6.64286,9.49912 -14.49444,18.38303 -22.96561,26.20338 -21.87878,20.20777 -47.23136,32.44922 -76.13898,37.48552 -5.63729,0.98015 -8.2985,1.92902 -14.22019,2.00201 0,0 -18.28311,0 -18.28311,0 -21.26935,-0.0313 -48.67369,-9.46783 -67.03805,-20.25991 -43.85915,-25.77586 -72.59409,-71.96804 -76.27103,-123.63446 0,0 -0.92431,-10.42713 -0.92431,-10.42713 -0.20315,-18.96695 4.35747,-43.03276 11.60977,-60.47734 11.67072,-28.11154 30.00461,-51.52044 54.41256,-69.111007 6.59207,-4.75477 13.08257,-8.498118 20.31456,-12.105904 4.50983,-2.25226 9.54784,-3.826757 13.20446,-7.413689 z M 120.96931,657.00835 c 0,0 -1.01573,0 -1.01573,0 0,0 1.01573,1.04272 1.01573,1.04272 z"
         style="display:inline;fill:#000000;fill-opacity:1;stroke:#ffffff;stroke-width:3.0874;stroke-dasharray:none;stroke-opacity:1" /></g><g
       id="g4"
       transform="matrix(0.76891153,0,0,0.76891153,14.99989,15)"
       style="display:none"><circle
         style="display:inline;fill:#c80000;fill-opacity:1;stroke:#960000;stroke-width:15;stroke-dasharray:none;stroke-opacity:1"
         id="path8"
         cx="243.45753"
         cy="243.45798"
         r="235.95798" /><g
         id="g7"
         transform="matrix(1.3005397,0,0,1.3005397,-19.507953,-19.508096)"><path
           id="Selection-2"
           fill="none"
           stroke="#000000"
           stroke-width="0.152017"
           d="m 191.07137,82.661434 c 9.1253,-1.10591 28.23469,0.2533 37.68746,1.421 36.98314,4.553382 71.06867,17.663686 101.32366,39.553296 6.0609,4.39276 15.76078,12.27623 21.00614,17.4598 2.82347,2.79258 6.11648,5.6593 7.82787,9.26741 1.51985,3.20035 1.4766,5.22064 1.43955,8.64959 -0.12358,10.44128 -7.94528,16.29827 -17.91701,16.05733 -8.68665,-0.21007 -11.95496,-5.70255 -17.91699,-10.85523 -10.13236,-8.74225 -19.22679,-15.8967 -30.89136,-22.59395 -23.62572,-13.56131 -50.00694,-22.15528 -77.22841,-24.05819 0,0 -7.41393,-0.56222 -7.41393,-0.56222 0,0 -14.82785,0 -14.82785,0 0,0 -6.17827,0.56222 -6.17827,0.56222 -29.52596,2.06355 -58.44645,11.99202 -83.40667,27.82694 -7.074134,4.4916 -16.063516,11.15179 -22.241789,16.75547 0,0 -5.56045,4.95499 -5.56045,4.95499 -5.863182,5.4554 -8.167682,8.1615 -16.681341,7.96997 -10.638985,-0.24713 -16.180892,-7.8217 -16.063507,-17.91082 0.0865,-7.22858 3.194166,-9.99645 8.031758,-14.82785 C 58.380605,136.017 65.386764,130.48744 72.448526,125.0382 97.229585,105.91026 129.57903,92.503416 160.18,86.386934 c 0,0 23.47744,-3.26213 23.47744,-3.26213 z m 7.41392,65.489686 c 5.04766,-0.61165 19.83844,0.74756 25.33092,1.51368 28.16056,3.91084 54.98045,15.8349 76.61057,34.32647 6.06708,5.18976 13.36978,10.79963 13.58603,19.50482 0.20388,8.60015 -3.70079,15.25416 -12.35037,17.61425 -1.7608,0.4819 -3.73785,0.86495 -5.56045,0.72286 -8.13678,-0.64872 -10.94789,-4.47925 -16.68133,-9.51454 -4.89319,-4.2939 -9.31683,-7.77227 -14.82785,-11.26299 -17.30533,-10.96026 -36.40239,-17.08293 -56.84012,-17.97259 0,0 -6.17825,-0.53134 -6.17825,-0.53134 0,0 -4.3248,0.58075 -4.3248,0.58075 0,0 -5.56045,0 -5.56045,0 -18.17648,1.81642 -35.80926,7.88967 -51.27966,17.53394 -5.47394,3.41659 -10.60192,7.40158 -15.44568,11.65223 -5.70873,5.01676 -10.2065,10.02116 -18.53482,9.39097 -10.416573,-0.77847 -16.304464,-8.00703 -16.057332,-18.21354 0.197705,-7.9082 5.146504,-11.87465 10.496892,-16.72459 0,0 11.12089,-9.14384 11.12089,-9.14384 18.03437,-13.5057 39.65832,-22.74222 61.78273,-26.88785 0,0 17.29916,-2.23035 17.29916,-2.23035 3.04588,-0.0309 4.28773,0.0865 7.41392,-0.35834 z m -1.23565,64.74211 c 0,0 5.56046,0 5.56046,0 20.03612,-0.0432 42.07403,7.85877 56.84009,21.54982 3.76257,3.49074 6.52425,6.02381 8.00705,11.06529 3.19416,10.87377 -3.812,20.36358 -14.80315,21.96993 -9.79873,1.42718 -15.62484,-6.91349 -22.8596,-11.76342 -8.35303,-5.60369 -19.0229,-8.46424 -29.03789,-8.35302 -8.70519,0.10502 -19.35652,3.5216 -26.56656,8.35302 -9.73078,6.52425 -16.13148,16.76164 -29.65572,9.67516 -7.93289,-4.16414 -10.81197,-14.33977 -7.19768,-22.35299 1.36539,-3.02116 2.97175,-4.76962 5.36891,-6.96909 10.18798,-9.36008 22.37153,-16.53924 35.80928,-20.12262 3.97263,-1.05649 8.27889,-1.89674 12.35654,-2.39099 z m 1.85348,63.77832 c 7.04941,-0.90203 14.69811,1.35303 19.65927,6.57986 9.496,10.0088 7.99467,27.19676 -3.59576,34.93812 -3.16327,2.11296 -6.15355,3.07059 -9.88524,3.65754 -21.54363,3.39805 -34.28323,-23.1747 -19.65925,-38.59566 3.89849,-4.10856 8.08116,-5.57281 13.48098,-6.57986 z"
           style="display:inline;fill:#ffffff;fill-opacity:1;stroke:#ffffff;stroke-width:0.3;stroke-dasharray:none;stroke-opacity:1" /><path
           id="Selection #1-3"
           fill="none"
           stroke="#000000"
           stroke-width="0.193252"
           d="m 186.55397,52.708944 c 0,0 23.23518,-0.404975 23.23518,-0.404975 4.37687,0 8.55921,-0.472458 12.42814,2.713299 6.5869,5.419823 7.10563,12.715996 7.02459,21.5848 0,0 -0.54036,10.124202 -0.54036,10.124202 0,0 -1.0807,25.64799 -1.0807,25.64799 0,0 -0.54035,10.12422 -0.54035,10.12422 0,0 -0.54036,12.82397 -0.54036,12.82397 0,0 0,14.17389 0,14.17389 0,0 -0.54035,10.12421 -0.54035,10.12421 0,0 -1.0807,27.67281 -1.0807,27.67281 0,0 -1.08071,21.59832 -1.08071,21.59832 0,0 0,13.49893 0,13.49893 0,0 -0.54036,10.79916 -0.54036,10.79916 0,0 0,2.69979 0,2.69979 0,0 -0.54035,10.1242 -0.54035,10.1242 -0.0163,11.69685 -1.44275,20.45765 -11.34742,24.71656 -2.33974,1.00568 -3.53932,0.92468 -5.94389,0.93142 0,0 -7.56494,0 -7.56494,0 -12.41732,-0.18222 -16.73474,-11.08936 -16.75096,-24.97304 0,0 0,-13.49893 0,-13.49893 0,0 -0.54035,-10.1242 -0.54035,-10.1242 0,0 -0.54035,-14.84884 -0.54035,-14.84884 0,0 -0.54035,-8.77431 -0.54035,-8.77431 0,0 -0.54035,-16.19872 -0.54035,-16.19872 0,0 -0.54036,-8.77431 -0.54036,-8.77431 0,0 0,-13.49895 0,-13.49895 0,0 -0.54035,-14.17389 -0.54035,-14.17389 0,0 -0.54035,-8.77431 -0.54035,-8.77431 0,0 -0.54036,-15.52376 -0.54036,-15.52376 0,0 -0.54035,-8.77432 -0.54035,-8.77432 0,0 -0.54035,-14.17388 -0.54035,-14.17388 0,0 0,-13.498961 0,-13.498961 -0.10806,-11.406599 -3.24212,-23.008939 5.94389,-30.818075 1.62645,-1.383644 3.02056,-1.842607 4.86317,-2.5243 z"
           style="fill:#ffffff;fill-opacity:1;stroke:#c80000;stroke-width:9;stroke-dasharray:none;stroke-opacity:1" /></g></g><g
       id="g9"
       transform="matrix(0.76891153,0,0,0.76891153,14.99989,15)"
       style="display:none"><circle
         style="display:inline;fill:#43c800;fill-opacity:1;stroke:#329600;stroke-width:15;stroke-dasharray:none;stroke-opacity:1"
         id="circle1"
         cx="243.45753"
         cy="243.45798"
         r="235.95798" /><path
         id="path1"
         fill="none"
         stroke="#000000"
         stroke-width="0.152017"
         d="m 191.07137,82.661434 c 9.1253,-1.10591 28.23469,0.2533 37.68746,1.421 36.98314,4.553382 71.06867,17.663686 101.32366,39.553296 6.0609,4.39276 15.76078,12.27623 21.00614,17.4598 2.82347,2.79258 6.11648,5.6593 7.82787,9.26741 1.51985,3.20035 1.4766,5.22064 1.43955,8.64959 -0.12358,10.44128 -7.94528,16.29827 -17.91701,16.05733 -8.68665,-0.21007 -11.95496,-5.70255 -17.91699,-10.85523 -10.13236,-8.74225 -19.22679,-15.8967 -30.89136,-22.59395 -23.62572,-13.56131 -50.00694,-22.15528 -77.22841,-24.05819 0,0 -7.41393,-0.56222 -7.41393,-0.56222 0,0 -14.82785,0 -14.82785,0 0,0 -6.17827,0.56222 -6.17827,0.56222 -29.52596,2.06355 -58.44645,11.99202 -83.40667,27.82694 -7.074134,4.4916 -16.063516,11.15179 -22.241789,16.75547 0,0 -5.56045,4.95499 -5.56045,4.95499 -5.863182,5.4554 -8.167682,8.1615 -16.681341,7.96997 -10.638985,-0.24713 -16.180892,-7.8217 -16.063507,-17.91082 0.0865,-7.22858 3.194166,-9.99645 8.031758,-14.82785 C 58.380605,136.017 65.386764,130.48744 72.448526,125.0382 97.229585,105.91026 129.57903,92.503416 160.18,86.386934 c 0,0 23.47744,-3.26213 23.47744,-3.26213 z m 7.41392,65.489686 c 5.04766,-0.61165 19.83844,0.74756 25.33092,1.51368 28.16056,3.91084 54.98045,15.8349 76.61057,34.32647 6.06708,5.18976 13.36978,10.79963 13.58603,19.50482 0.20388,8.60015 -3.70079,15.25416 -12.35037,17.61425 -1.7608,0.4819 -3.73785,0.86495 -5.56045,0.72286 -8.13678,-0.64872 -10.94789,-4.47925 -16.68133,-9.51454 -4.89319,-4.2939 -9.31683,-7.77227 -14.82785,-11.26299 -17.30533,-10.96026 -36.40239,-17.08293 -56.84012,-17.97259 0,0 -6.17825,-0.53134 -6.17825,-0.53134 0,0 -4.3248,0.58075 -4.3248,0.58075 0,0 -5.56045,0 -5.56045,0 -18.17648,1.81642 -35.80926,7.88967 -51.27966,17.53394 -5.47394,3.41659 -10.60192,7.40158 -15.44568,11.65223 -5.70873,5.01676 -10.2065,10.02116 -18.53482,9.39097 -10.416573,-0.77847 -16.304464,-8.00703 -16.057332,-18.21354 0.197705,-7.9082 5.146504,-11.87465 10.496892,-16.72459 0,0 11.12089,-9.14384 11.12089,-9.14384 18.03437,-13.5057 39.65832,-22.74222 61.78273,-26.88785 0,0 17.29916,-2.23035 17.29916,-2.23035 3.04588,-0.0309 4.28773,0.0865 7.41392,-0.35834 z m -1.23565,64.74211 c 0,0 5.56046,0 5.56046,0 20.03612,-0.0432 42.07403,7.85877 56.84009,21.54982 3.76257,3.49074 6.52425,6.02381 8.00705,11.06529 3.19416,10.87377 -3.812,20.36358 -14.80315,21.96993 -9.79873,1.42718 -15.62484,-6.91349 -22.8596,-11.76342 -8.35303,-5.60369 -19.0229,-8.46424 -29.03789,-8.35302 -8.70519,0.10502 -19.35652,3.5216 -26.56656,8.35302 -9.73078,6.52425 -16.13148,16.76164 -29.65572,9.67516 -7.93289,-4.16414 -10.81197,-14.33977 -7.19768,-22.35299 1.36539,-3.02116 2.97175,-4.76962 5.36891,-6.96909 10.18798,-9.36008 22.37153,-16.53924 35.80928,-20.12262 3.97263,-1.05649 8.27889,-1.89674 12.35654,-2.39099 z m 1.85348,63.77832 c 7.04941,-0.90203 14.69811,1.35303 19.65927,6.57986 9.496,10.0088 7.99467,27.19676 -3.59576,34.93812 -3.16327,2.11296 -6.15355,3.07059 -9.88524,3.65754 -21.54363,3.39805 -34.28323,-23.1747 -19.65925,-38.59566 3.89849,-4.10856 8.08116,-5.57281 13.48098,-6.57986 z"
         style="display:inline;fill:#ffffff;fill-opacity:1;stroke:#ffffff;stroke-width:0.3;stroke-dasharray:none;stroke-opacity:1"
         transform="matrix(1.3005397,0,0,1.3005397,-19.507953,-19.508096)" /></g><g
       id="g37"
       style="display:none"><g
         id="g45"
         style="display:inline"
         transform="matrix(2.0282174,0,0,2.0282174,-10.10032,-10.100783)"><circle
           style="display:inline;fill:#c80000;fill-opacity:1;stroke:#960000;stroke-width:15;stroke-dasharray:none;stroke-opacity:1"
           id="circle44"
           cx="243.45753"
           cy="243.45798"
           r="235.95798"
           transform="matrix(0.76891153,0,0,0.76891153,14.99989,15)" /><rect
           style="display:inline;opacity:1;mix-blend-mode:normal;fill:#000000;fill-opacity:1;stroke:none;stroke-width:6.53483;stroke-linecap:square;stroke-linejoin:bevel;stroke-dasharray:none;stroke-opacity:1;paint-order:markers stroke fill"
           id="rect45"
           width="41.19664"
           height="329.57312"
           x="-20.598637"
           y="121.16377"
           transform="rotate(-45)"
           ry="20.59832" /><rect
           style="display:inline;opacity:1;mix-blend-mode:normal;fill:#000000;fill-opacity:1;stroke:none;stroke-width:6.53483;stroke-linecap:square;stroke-linejoin:bevel;stroke-dasharray:none;stroke-opacity:1;paint-order:markers stroke fill"
           id="rect46"
           width="41.19664"
           height="329.57312"
           x="265.35202"
           y="-164.78624"
           transform="rotate(45)"
           ry="20.59832" /></g><g
         id="g44"
         style="display:none"><circle
           style="display:inline;fill:#c80000;fill-opacity:1;stroke:#960000;stroke-width:15.0009;stroke-dasharray:none;stroke-opacity:1"
           id="circle38"
           cx="243.45753"
           cy="243.45798"
           r="235.95798"
           transform="matrix(0.76891153,0,0,0.76891153,14.99989,15)" /><rect
           style="display:inline;opacity:1;mix-blend-mode:normal;fill:#000000;fill-opacity:1;stroke:none;stroke-width:6.25;stroke-linecap:square;stroke-linejoin:bevel;stroke-dasharray:none;stroke-opacity:1;paint-order:markers stroke fill"
           id="rect38"
           width="39.400974"
           height="315.20779"
           x="-19.700804"
           y="128.34644"
           transform="rotate(-45)"
           ry="19.700487" /><rect
           style="opacity:1;mix-blend-mode:normal;fill:#000000;fill-opacity:1;stroke:none;stroke-width:6.25;stroke-linecap:square;stroke-linejoin:bevel;stroke-dasharray:none;stroke-opacity:1;paint-order:markers stroke fill"
           id="rect39"
           width="39.400974"
           height="315.20779"
           x="266.24985"
           y="-157.60358"
           transform="rotate(45)"
           ry="19.700487" /></g></g></g><g
     id="layer2"
     style="display:none"><g
       id="g5"
       style="display:inline"><g
         id="g6"
         style="display:inline"
         transform="matrix(1.3850153,0,0,1.3850153,-154.00595,-154.00613)"><circle
           style="display:inline;fill:none;stroke:#5c73b3;stroke-width:29.5368;stroke-dasharray:none;stroke-opacity:1"
           id="circle3"
           cx="399.99954"
           cy="400"
           r="235.01859"
           transform="matrix(0.69384225,0,0,0.69384225,122.46296,122.4631)" /><circle
           style="display:inline;fill:none;stroke:#5c73b3;stroke-width:20.4939;stroke-dasharray:none;stroke-opacity:1"
           id="circle5"
           cx="399.99954"
           cy="400"
           r="217.89709" /></g><g
         id="g11"
         style="display:inline"
         transform="matrix(1.3850153,0,0,1.3850153,-154.00595,-154.00613)"><circle
           style="display:inline;fill:none;stroke:#bae9ff;stroke-width:29.5368;stroke-dasharray:none;stroke-opacity:1"
           id="circle6"
           cx="399.99954"
           cy="400"
           r="235.01859"
           transform="matrix(0.69384225,0,0,0.69384225,122.46296,122.4631)" /><circle
           style="display:inline;fill:none;stroke:#bae9ff;stroke-width:20.4939;stroke-dasharray:none;stroke-opacity:1"
           id="circle7"
           cx="399.99954"
           cy="400"
           r="217.89709" /></g></g><g
       id="g21"
       style="display:inline"><g
         id="g12"
         style="display:inline"
         transform="matrix(1.2124271,0,0,1.2124271,-84.970754,-84.970851)"><circle
           style="display:inline;fill:#763434;fill-opacity:1;stroke:none;stroke-width:12.2195;stroke-dasharray:none"
           id="circle4"
           cx="399.99954"
           cy="400"
           r="195.43279"
           transform="matrix(0.69384225,0,0,0.69384225,122.46296,122.4631)" /></g><g
         id="g10"
         style="display:inline"
         transform="matrix(0.84123317,0,0,0.84123317,63.506661,63.506734)"><circle
           style="display:inline;fill:#ff4141;fill-opacity:1;stroke:none;stroke-width:12.2195;stroke-dasharray:none"
           id="circle11"
           cx="399.99954"
           cy="400"
           r="195.43279" /></g></g><g
       id="g36"
       transform="matrix(0.4432993,0,0,0.4432993,217.94966,754.58856)"
       style="display:none;stroke:none"><path
         id="Selection #1-6"
         fill="none"
         stroke="#000000"
         stroke-width="0.910796"
         d="m 396.54053,-1405.4234 c 29.71475,-7.2864 44.99907,4.4401 45.42601,34.8949 0,0 0,133.7733 0,133.7733 -0.0284,9.8764 0.76848,19.696 -4.95247,28.3486 -11.72651,17.7889 -37.25729,19.1552 -50.74848,2.647 -7.31483,-8.9088 -6.85944,-17.3336 -6.91636,-28.1494 0,0 0,-136.6195 0,-136.6195 0.2277,-16.7644 1.87852,-26.0432 17.1913,-34.8949 z m 2.73239,333.0102 c 29.68629,-6.9164 42.5513,9.9049 42.69362,37.7411 0,0 0,130.92713 0,130.92713 -0.0284,12.12499 0.65463,23.48149 -7.54255,33.55718 -15.68278,19.24059 -54.79014,17.56131 -55.07476,-27.8647 0,0 0,-136.61961 0,-136.61961 0.11385,-19.4967 1.56543,-27.9216 19.92369,-37.7411 z m -2.73239,335.85643 c 29.71475,-7.28637 44.99907,4.44014 45.42601,34.89492 0,0 0,133.77333 0,133.77333 -0.0284,9.87651 0.76848,19.69599 -4.95247,28.34856 -11.72651,17.78906 -37.25729,19.15525 -50.74848,2.64705 -7.31483,-8.90878 -6.85944,-17.33365 -6.91636,-28.14937 0,0 0,-136.61957 0,-136.61957 0.2277,-16.76441 1.87852,-26.04306 17.1913,-34.89492 z m 2.73239,333.01021 c 29.97092,-7.17252 42.5513,9.6203 42.69362,37.74116 0,0 0,130.92709 0,130.92709 -0.0284,24.10771 -3.95628,45.1699 -34.1549,42.38058 -26.18542,-2.41935 -28.43395,-21.00526 -28.46241,-42.38058 0,0 0,-130.92709 0,-130.92709 0.11385,-19.49671 1.56543,-27.92158 19.92369,-37.74116 z"
         style="display:inline;fill:#bae9ff;fill-opacity:1;stroke:none" /><path
         id="Selection-15"
         fill="none"
         stroke="#000000"
         stroke-width="1.05961"
         d="m 235.07403,-306.49521 c 16.75527,0 45.99372,-3.37746 58.84149,8.04648 17.21869,15.29813 13.57645,46.55664 -5.92715,58.67593 -11.02653,6.85427 -23.90748,6.09273 -36.35772,6.12582 0,0 -536.4278,0 -536.4278,0 -75.33169,-0.13251 -119.07374,-43.87444 -119.2062,-119.20617 0,0 0,-781.46255 0,-781.46255 0,0 0,-82.7821 0,-82.7821 0,0 0,-39.7353 0,-39.7353 0.56292,-46.6229 24.73528,-87.0537 69.53695,-103.61 15.7286,-5.8279 23.44387,-5.6292 39.73538,-5.6624 0,0 552.98408,0 552.98408,0 11.05972,0.033 23.17903,-0.894 32.74866,5.7617 17.41734,12.0862 18.2783,42.0864 3.17882,56.2256 -15.0663,14.1723 -39.7686,10.8609 -59.10651,10.8609 z m 350.99608,-986.76209 c -19.93409,0 -43.2122,3.2782 -59.10651,-11.2252 -15.56291,-14.1723 -13.67554,-43.0798 3.44384,-55.3646 9.86759,-7.0862 20.96049,-6.2252 32.48363,-6.2584 0,0 552.98423,0 552.98423,0 73.5435,0.099 109.173,49.4044 109.2725,119.2062 0,0 0,778.15128 0,778.15128 0,0 0,79.47076 0,79.47076 0,48.1792 4.801,88.80857 -33.2455,125.53075 -11.1258,10.72858 -24.7021,19.73527 -39.6029,24.20545 -15.5629,4.63578 -33.5101,5.86099 -49.6691,5.89408 0,0 -533.11658,0 -533.11658,0 -16.09295,-0.0329 -29.76849,0.43053 -42.55012,-11.22522 -15.56291,-14.17225 -13.67554,-43.07981 3.44384,-55.36461 9.86759,-7.08615 20.96049,-6.22521 32.48363,-6.2584 0,0 23.17904,0 23.17904,0 z m -705.30317,0 c 0,0 -168.87536,0 -168.87536,0 -12.68224,0.1987 -22.51672,0.5299 -31.68899,10.6955 -11.42394,12.616 -11.3246,32.9141 -11.35774,48.9076 0,0 0,79.4708 0,79.4708 0,0 211.92209,0 211.92209,0 z m 281.45891,0 c 0,0 -208.610682,0 -208.610682,0 0,0 0,139.0739 0,139.0739 0,0 208.610682,0 208.610682,0 z m 705.30324,0 c 0,0 -208.61081,0 -208.61081,0 0,0 0,139.0739 0,139.0739 0,0 208.61081,0 208.61081,0 z m 284.77031,139.0739 c 0,0 0,-86.0933 0,-86.0933 -0.065,-13.8081 -0.265,-27.7154 -8.9405,-39.3712 -10.2649,-13.7749 -21.9208,-13.5431 -37.4176,-13.6094 0,0 -165.56403,0 -165.56403,0 0,0 0,139.0739 0,139.0739 z m -1480.14324,69.5369 c 0,0 -3.31131,56.2918 -3.31131,56.2918 0,0 0,115.89484 0,115.89484 0,0 0,394.04262 0,394.04262 0,0 493.381,0 493.381,0 0,0 0,-562.91796 0,-562.91796 0,0 -331.12813,0 -331.12813,0 0,0 -99.33846,0 -99.33846,0 z m 1480.14324,3.3113 c 0,0 -493.38112,0 -493.38112,0 0,0 0,562.91796 0,562.91796 0,0 493.38112,0 493.38112,0 z m -1271.53246,635.76616 c 0,0 -211.92209,0 -211.92209,0 0,0 0,82.78204 0,82.78204 0.1657,12.28492 1.8212,32.11943 9.43718,42.15268 9.27161,12.18553 29.4042,13.94047 43.54338,14.13911 0,0 158.94153,0 158.94153,0 z m 281.45891,0 c 0,0 -208.610682,0 -208.610682,0 0,0 0,139.07383 0,139.07383 0,0 208.610682,0 208.610682,0 z m 705.30324,0 c 0,0 -208.61081,0 -208.61081,0 0,0 0,139.07383 0,139.07383 0,0 208.61081,0 208.61081,0 z m 284.77031,0 c 0,0 -211.92213,0 -211.92213,0 0,0 0,139.07383 0,139.07383 0,0 162.25303,0 162.25303,0 14.8012,-0.19864 30.6955,-1.42378 40.7286,-13.9736 9.4042,-11.82123 8.9073,-28.07967 8.9405,-42.31819 z"
         style="display:inline;fill:#bae9ff;fill-opacity:1;stroke:none" /></g></g><g
     id="layer3"
     style="display:inline"><g
       id="g16"
       transform="translate(-0.00111248,-23.112709)"
       style="display:none"><path
         id="path15"
         fill="none"
         stroke="#000000"
         stroke-width="0.520579"
         d="m 136.3635,231.01374 c 15.03173,-1.26891 25.42705,10.65561 19.39158,25.10168 0,0 -17.66716,27.65578 -17.66716,27.65578 -7.75988,12.51017 -15.47097,28.56678 -20.92078,42.29706 -25.719874,64.926 -23.247117,139.46644 4.09956,203.35128 6.08427,14.20208 13.38865,27.62324 21.68538,40.67026 3.80673,5.97042 11.14365,15.01548 13.17717,21.14853 3.30242,9.95608 -1.1225,20.56288 -11.6317,23.4749 -13.40491,3.69283 -21.05093,-7.36948 -27.60697,-16.96766 -14.18579,-20.7581 -27.899792,-47.877 -36.342936,-71.57965 -25.898826,-72.81603 -22.759079,-164.58438 11.501542,-234.26068 7.938836,-16.15422 14.527424,-29.05483 25.020344,-43.92387 6.29575,-8.89865 8.42688,-13.64894 19.29397,-16.96763 z m 520.5793,-0.0325 c 13.58384,-1.54548 19.00109,6.7838 25.98014,17.00017 13.50252,19.74947 24.41845,41.22336 33.23575,63.4456 29.54281,74.4591 27.31411,170.37583 -8.3781,242.39472 -9.06136,18.2691 -14.26709,28.4041 -25.89881,45.55068 -4.70146,6.93021 -9.54935,14.13701 -18.43174,15.68246 -14.65759,2.57035 -24.89019,-12.13601 -19.08251,-25.44332 0,0 15.73128,-24.40215 15.73128,-24.40215 8.63834,-13.92549 16.08913,-28.68069 22.14087,-43.92388 25.24809,-63.64082 24.56482,-138.70184 -2.27753,-201.72447 -5.95414,-13.99056 -12.65659,-27.85099 -20.90455,-40.67025 -4.40863,-6.88141 -12.99819,-17.19538 -15.37334,-24.40216 -3.83926,-11.71303 2.19623,-20.00977 13.25854,-23.5074 z M 199.8091,291.4823 c 14.93412,-3.56271 27.72085,5.17326 23.7189,21.57151 -1.3828,5.72636 -6.08427,11.29006 -9.30536,16.26809 -5.74263,8.91493 -9.63071,16.36572 -13.90922,26.02897 -11.81065,26.59835 -13.56761,46.39663 -13.5188,74.83327 0.0325,21.49017 7.28811,49.1134 16.87003,68.32603 6.0192,12.05467 21.58777,29.7218 20.36766,42.29707 -1.05743,10.78577 -9.12641,15.4547 -19.34278,14.46237 -9.17521,-0.89478 -14.08817,-7.32065 -18.93607,-14.46237 -9.59817,-14.12072 -17.17911,-29.49407 -22.85668,-45.55069 -17.92746,-50.65887 -16.18677,-106.55606 4.39238,-156.17378 5.87278,-14.15325 19.06623,-40.52385 32.51994,-47.60047 z m 387.2134,-0.14641 c 5.17326,-1.05743 9.63071,-1.65935 14.60875,0.84595 11.09485,5.62876 25.81746,35.02522 30.90939,46.90093 23.68631,55.26275 23.2471,121.539 -3.66034,175.6955 -5.12442,10.31398 -16.25181,31.88548 -25.63853,37.83961 -12.99819,8.24795 -29.25004,-0.99233 -27.26534,-16.69107 0.94356,-7.53216 7.89006,-16.2681 11.95708,-22.77535 6.52349,-10.50919 11.59913,-20.90451 15.82883,-32.5362 19.09876,-52.67612 10.03745,-106.1331 -19.08245,-152.92016 -7.84123,-12.59151 -16.77244,-27.8998 2.34261,-36.35921 z M 396.65316,328.4109 c 49.17845,-3.92062 97.02297,39.40134 97.60862,88.75876 0,0 0,8.13405 0,8.13405 -0.0813,50.64261 -38.4578,87.66881 -87.84775,92.45163 -10.60681,1.02489 -23.97919,-1.08997 -34.16302,-4.14836 -58.64653,-17.6021 -83.56926,-84.20371 -55.11636,-137.10757 12.99822,-24.15814 36.60326,-40.62146 63.25041,-46.08754 z m -130.14484,15.12933 c 13.40492,-3.23735 26.69595,2.39141 24.64618,18.31788 -0.95982,7.32064 -7.72735,15.82887 -11.19245,22.77534 -4.96178,9.90728 -8.5245,22.35238 -8.83359,33.47976 -0.42296,14.46234 1.26892,26.4194 7.27184,39.7267 3.15601,7.01156 12.24989,20.53036 13.12836,26.02896 2.27754,14.3322 -16.23556,29.26633 -31.23475,14.42982 -16.59346,-16.43079 -22.74281,-44.1679 -24.97154,-66.48774 -0.50431,-5.07565 -1.4316,-7.58094 -1.05742,-13.01448 0.91101,-12.70539 3.57898,-27.08639 7.92256,-39.04344 4.68522,-12.88434 11.79438,-29.52661 24.32081,-36.2128 z m 252.18815,0 c 21.14853,-5.14072 30.76295,14.31593 37.28649,31.33237 13.94173,36.44055 12.59151,76.47634 -7.10919,110.62309 -3.98566,6.93021 -9.30536,15.24321 -17.19536,18.05759 -9.5331,3.38376 -24.1744,-3.25362 -22.59642,-19.68441 0.74834,-7.87375 6.65368,-14.15324 10.23267,-21.14853 5.74261,-11.27379 11.17616,-29.60794 10.21636,-42.29707 -0.94355,-12.33121 -4.14839,-24.7275 -9.67955,-35.78982 -4.76652,-9.54936 -11.87571,-16.2193 -10.76948,-27.65577 0.7158,-7.35318 3.44884,-10.03742 9.61448,-13.43745 z"
         style="fill:#5c73b3;fill-opacity:1;stroke:none;stroke-width:3.125;stroke-dasharray:none;stroke-opacity:1" /><path
         id="path16"
         fill="none"
         stroke="#000000"
         stroke-width="0.482134"
         d="m 330.69381,571.25382 c 0,0 27.1201,-1.50667 27.1201,-1.50667 0,0 1.50668,33.14673 1.50668,33.14673 0,0 0,58.76012 0,58.76012 0,0 -28.62678,0 -28.62678,0 z m -87.38681,0 c 0,0 28.62673,0 28.62673,0 0,0 0,55.74677 0,55.74677 0.18078,9.85362 2.19973,11.87256 12.05335,12.05336 0,0 31.64005,0 31.64005,0 0,0 0,22.60005 0,22.60005 0,0 -51.22675,0 -51.22675,0 0,0 -18.6827,-1.53681 -18.6827,-1.53681 0,0 -2.41068,-12.02322 -2.41068,-12.02322 z m 128.06694,0 c 0,0 21.09338,0 21.09338,0 10.57682,0.1808 9.31122,1.95867 14.0572,16.57337 0,0 14.56952,45.20009 14.56952,45.20009 0,0 13.59017,-43.69343 13.59017,-43.69343 0,0 6.76492,-16.54323 6.76492,-16.54323 0,0 27.85835,-1.5368 27.85835,-1.5368 0,0 -25.13126,69.3068 -25.13126,69.3068 -4.05297,10.95352 -4.1584,20.8674 -17.05551,21.09338 0,0 -12.05335,0 -12.05335,0 -12.32456,-0.0753 -10.62204,-0.85878 -18.15539,-21.09338 z m 108.48022,0 c 0,0 75.33348,0 75.33348,0 0,0 0,19.5867 0,19.5867 0,0 -46.70676,0 -46.70676,0 0,0 0,13.56003 0,13.56003 0,0 33.14674,0 33.14674,0 2.93798,0.0603 6.97586,-0.15067 9.02493,2.41067 2.92293,3.7215 1.20533,13.00259 0,17.17603 -9.05507,-2.19973 -20.65643,-1.67237 -30.1183,-1.50666 -3.22428,0.0603 -7.18684,-0.0603 -9.64269,2.41067 -3.17909,3.17909 -2.41067,11.36029 -2.41067,15.66936 0,0 48.21343,0 48.21343,0 0,0 0,21.09338 0,21.09338 0,0 -76.84015,0 -76.84015,0 z"
         style="fill:#5c73b3;fill-opacity:1;stroke:none;stroke-width:3.125;stroke-dasharray:none;stroke-opacity:1" /></g><g
       id="g14"
       style="display:none"><path
         id="path13"
         fill="none"
         stroke="#000000"
         stroke-width="0.520579"
         d="m 136.3635,207.89587 c 15.03173,-1.26891 25.42705,10.65561 19.39158,25.10168 0,0 -17.66716,27.65578 -17.66716,27.65578 -7.75988,12.51017 -15.47097,28.56678 -20.92078,42.29706 -25.719874,64.926 -23.247117,139.46644 4.09956,203.35128 6.08427,14.20208 13.38865,27.62324 21.68538,40.67026 3.80673,5.97042 11.14365,15.01548 13.17717,21.14853 3.30242,9.95608 -1.1225,20.56288 -11.6317,23.4749 -13.40491,3.69283 -21.05093,-7.36948 -27.60697,-16.96766 C 102.70479,553.8696 88.990788,526.7507 80.547644,503.04805 54.648818,430.23202 57.788565,338.46367 92.049186,268.78737 c 7.938836,-16.15422 14.527424,-29.05483 25.020344,-43.92387 6.29575,-8.89865 8.42688,-13.64894 19.29397,-16.96763 z m 520.5793,-0.0325 c 13.58384,-1.54548 19.00109,6.7838 25.98014,17.00017 13.50252,19.74947 24.41845,41.22336 33.23575,63.4456 29.54281,74.4591 27.31411,170.37583 -8.3781,242.39472 -9.06136,18.2691 -14.26709,28.4041 -25.89881,45.55068 -4.70146,6.93021 -9.54935,14.13701 -18.43174,15.68246 -14.65759,2.57035 -24.89019,-12.13601 -19.08251,-25.44332 0,0 15.73128,-24.40215 15.73128,-24.40215 8.63834,-13.92549 16.08913,-28.68069 22.14087,-43.92388 25.24809,-63.64082 24.56482,-138.70184 -2.27753,-201.72447 -5.95414,-13.99056 -12.65659,-27.85099 -20.90455,-40.67025 -4.40863,-6.88141 -12.99819,-17.19538 -15.37334,-24.40216 -3.83926,-11.71303 2.19623,-20.00977 13.25854,-23.5074 z m -457.1337,60.50106 c 14.93412,-3.56271 27.72085,5.17326 23.7189,21.57151 -1.3828,5.72636 -6.08427,11.29006 -9.30536,16.26809 -5.74263,8.91493 -9.63071,16.36572 -13.90922,26.02897 -11.81065,26.59835 -13.56761,46.39663 -13.5188,74.83327 0.0325,21.49017 7.28811,49.1134 16.87003,68.32603 6.0192,12.05467 21.58777,29.7218 20.36766,42.29707 -1.05743,10.78577 -9.12641,15.4547 -19.34278,14.46237 -9.17521,-0.89478 -14.08817,-7.32065 -18.93607,-14.46237 -9.59817,-14.12072 -17.17911,-29.49407 -22.85668,-45.55069 -17.92746,-50.65887 -16.18677,-106.55606 4.39238,-156.17378 5.87278,-14.15325 19.06623,-40.52385 32.51994,-47.60047 z m 387.2134,-0.14641 c 5.17326,-1.05743 9.63071,-1.65935 14.60875,0.84595 11.09485,5.62876 25.81746,35.02522 30.90939,46.90093 23.68631,55.26275 23.2471,121.539 -3.66034,175.6955 -5.12442,10.31398 -16.25181,31.88548 -25.63853,37.83961 -12.99819,8.24795 -29.25004,-0.99233 -27.26534,-16.69107 0.94356,-7.53216 7.89006,-16.2681 11.95708,-22.77535 6.52349,-10.50919 11.59913,-20.90451 15.82883,-32.5362 19.09876,-52.67612 10.03745,-106.1331 -19.08245,-152.92016 -7.84123,-12.59151 -16.77244,-27.8998 2.34261,-36.35921 z m -190.36934,37.07501 c 49.17845,-3.92062 97.02297,39.40134 97.60862,88.75876 0,0 0,8.13405 0,8.13405 -0.0813,50.64261 -38.4578,87.66881 -87.84775,92.45163 -10.60681,1.02489 -23.97919,-1.08997 -34.16302,-4.14836 -58.64653,-17.6021 -83.56926,-84.20371 -55.11636,-137.10757 12.99822,-24.15814 36.60326,-40.62146 63.25041,-46.08754 z m -130.14484,15.12933 c 13.40492,-3.23735 26.69595,2.39141 24.64618,18.31788 -0.95982,7.32064 -7.72735,15.82887 -11.19245,22.77534 -4.96178,9.90728 -8.5245,22.35238 -8.83359,33.47976 -0.42296,14.46234 1.26892,26.4194 7.27184,39.7267 3.15601,7.01156 12.24989,20.53036 13.12836,26.02896 2.27754,14.3322 -16.23556,29.26633 -31.23475,14.42982 -16.59346,-16.43079 -22.74281,-44.1679 -24.97154,-66.48774 -0.50431,-5.07565 -1.4316,-7.58094 -1.05742,-13.01448 0.91101,-12.70539 3.57898,-27.08639 7.92256,-39.04344 4.68522,-12.88434 11.79438,-29.52661 24.32081,-36.2128 z m 252.18815,0 c 21.14853,-5.14072 30.76295,14.31593 37.28649,31.33237 13.94173,36.44055 12.59151,76.47634 -7.10919,110.62309 -3.98566,6.93021 -9.30536,15.24321 -17.19536,18.05759 -9.5331,3.38376 -24.1744,-3.25362 -22.59642,-19.68441 0.74834,-7.87375 6.65368,-14.15324 10.23267,-21.14853 5.74261,-11.27379 11.17616,-29.60794 10.21636,-42.29707 -0.94355,-12.33121 -4.14839,-24.7275 -9.67955,-35.78982 -4.76652,-9.54936 -11.87571,-16.2193 -10.76948,-27.65577 0.7158,-7.35318 3.44884,-10.03742 9.61448,-13.43745 z"
         style="display:inline;fill:#bae9ff;fill-opacity:1;stroke:none;stroke-width:3.125;stroke-dasharray:none;stroke-opacity:1" /><path
         id="path14"
         fill="none"
         stroke="#000000"
         stroke-width="0.482134"
         d="m 330.6927,548.14111 c 0,0 27.1201,-1.50667 27.1201,-1.50667 0,0 1.50668,33.14673 1.50668,33.14673 0,0 0,58.76012 0,58.76012 0,0 -28.62678,0 -28.62678,0 z m -87.38681,0 c 0,0 28.62673,0 28.62673,0 0,0 0,55.74677 0,55.74677 0.18078,9.85362 2.19973,11.87256 12.05335,12.05336 0,0 31.64005,0 31.64005,0 0,0 0,22.60005 0,22.60005 0,0 -51.22675,0 -51.22675,0 0,0 -18.6827,-1.53681 -18.6827,-1.53681 0,0 -2.41068,-12.02322 -2.41068,-12.02322 z m 128.06694,0 c 0,0 21.09338,0 21.09338,0 10.57682,0.1808 9.31122,1.95867 14.0572,16.57337 0,0 14.56952,45.20009 14.56952,45.20009 0,0 13.59017,-43.69343 13.59017,-43.69343 0,0 6.76492,-16.54323 6.76492,-16.54323 0,0 27.85835,-1.5368 27.85835,-1.5368 0,0 -25.13126,69.3068 -25.13126,69.3068 -4.05297,10.95352 -4.1584,20.8674 -17.05551,21.09338 0,0 -12.05335,0 -12.05335,0 -12.32456,-0.0753 -10.62204,-0.85878 -18.15539,-21.09338 z m 108.48022,0 c 0,0 75.33348,0 75.33348,0 0,0 0,19.5867 0,19.5867 0,0 -46.70676,0 -46.70676,0 0,0 0,13.56003 0,13.56003 0,0 33.14674,0 33.14674,0 2.93798,0.0603 6.97586,-0.15067 9.02493,2.41067 2.92293,3.7215 1.20533,13.00259 0,17.17603 -9.05507,-2.19973 -20.65643,-1.67237 -30.1183,-1.50666 -3.22428,0.0603 -7.18684,-0.0603 -9.64269,2.41067 -3.17909,3.17909 -2.41067,11.36029 -2.41067,15.66936 0,0 48.21343,0 48.21343,0 0,0 0,21.09338 0,21.09338 0,0 -76.84015,0 -76.84015,0 z"
         style="display:inline;fill:#bae9ff;fill-opacity:1;stroke:none;stroke-width:3.125;stroke-dasharray:none;stroke-opacity:1" /></g><g
       id="g19"
       style="display:inline"><g
         id="g17"
         style="display:inline"
         transform="matrix(4.4277487,0,0,4.4277487,-1371.0979,-1371.0995)"><path
           id="path17"
           fill="none"
           stroke="#000000"
           stroke-width="0.0511474"
           d="m 383.77621,353.89612 c 0,0 4.95491,0 4.95491,0 0,0 8.79098,0 8.79098,0 0,0 17.90162,0 17.90162,0 0,0 2.39754,0.14226 2.39754,0.14226 0,0 1.27869,0 1.27869,0 0,0 2.39754,0.15984 2.39754,0.15984 0,0 3.51639,0 3.51639,0 0,0 1.91803,0.15344 1.91803,0.15344 0,0 2.71721,0 2.71721,0 0,0 3.67623,0.32606 3.67623,0.32606 0,0 1.91803,0 1.91803,0 0,0 5.43442,0.47951 5.43442,0.47951 0,0 1.7582,0 1.7582,0 0,0 1.43852,0.31967 1.43852,0.31967 0,0 1.27869,0 1.27869,0 0,0 2.55738,0.42836 2.55738,0.42836 0,0 1.27868,0.1023 1.27868,0.1023 3.62028,0.58979 7.00082,2.1418 9.68286,4.66561 2.94578,2.77315 4.41307,6.73388 5.10836,10.62749 0,0 0.12468,1.11885 0.12468,1.11885 0,0 0.47471,3.03688 0.47471,3.03688 0,0 0.27332,1.27869 0.27332,1.27869 0,0 0,1.11885 0,1.11885 0,0 0.4795,4.95491 0.4795,4.95491 0,0 0.31967,3.19672 0.31967,3.19672 0,0 0.15984,4.47541 0.15984,4.47541 0,0 0.15984,2.2377 0.15984,2.2377 0,0 0.15984,3.03689 0.15984,3.03689 0,0 0,9.59015 0,9.59015 0,0 -0.31968,4.47541 -0.31968,4.47541 0,0 -0.15984,5.11475 -0.15984,5.11475 0,0 -0.2925,2.55737 -0.2925,2.55737 0,0 -0.21418,3.35656 -0.21418,3.35656 0,0 -0.29249,1.75819 -0.29249,1.75819 0,0 0,1.27869 0,1.27869 0,0 -0.2941,1.43853 -0.2941,1.43853 -0.75443,5.7509 -1.88128,10.94717 -6.59644,14.85674 -3.8856,3.22229 -8.69987,3.97993 -13.56847,4.33795 -1.24192,0.0911 -0.80078,0.28132 -2.87704,0.30528 0,0 -5.7541,0.47951 -5.7541,0.47951 0,0 -1.91803,0 -1.91803,0 0,0 -3.83606,0.31967 -3.83606,0.31967 0,0 -2.39754,0 -2.39754,0 0,0 -2.55738,0.15985 -2.55738,0.15985 0,0 -3.83606,0 -3.83606,0 0,0 -5.11475,0.31967 -5.11475,0.31967 0,0 -31.64751,0 -31.64751,0 0,0 -2.39755,-0.15985 -2.39755,-0.15985 0,0 -0.95901,0 -0.95901,0 0,0 -2.39754,-0.15982 -2.39754,-0.15982 0,0 -3.5164,0 -3.5164,0 0,0 -1.91802,-0.15344 -1.91802,-0.15344 0,0 -2.71721,0 -2.71721,0 0,0 -3.19672,-0.31328 -3.19672,-0.31328 0,0 -2.39754,0 -2.39754,0 0,0 -6.07377,-0.49231 -6.07377,-0.49231 -1.71024,-0.0191 -1.33783,-0.12466 -2.71721,-0.2909 0,0 -2.55738,-0.21736 -2.55738,-0.21736 0,0 -1.11885,-0.23976 -1.11885,-0.23976 0,0 -1.27868,-0.1023 -1.27868,-0.1023 -3.18553,-0.51786 -6.69393,-1.91163 -9.12983,-4.06942 -2.46467,-2.18337 -4.3875,-5.47599 -5.18508,-8.66631 0,0 -0.60897,-3.03689 -0.60897,-3.03689 0,0 -0.22857,-0.959 -0.22857,-0.959 0,0 -0.22057,-2.07788 -0.22057,-2.07788 0,0 -0.23976,-1.11885 -0.23976,-1.11885 0,0 -0.0975,-1.43852 -0.0975,-1.43852 0,0 -0.43315,-4.63524 -0.43315,-4.63524 0,0 -0.31968,-3.19672 -0.31968,-3.19672 0,0 -0.15983,-4.4754 -0.15983,-4.4754 0,0 -0.31968,-5.11475 -0.31968,-5.11475 0,0 0,-10.38934 0,-10.38934 0,0 0.31968,-4.95491 0.31968,-4.95491 0,0 0.15983,-5.11475 0.15983,-5.11475 0,0 0.31968,-2.55738 0.31968,-2.55738 0,0 0,-1.75819 0,-1.75819 0,0 0.4811,-3.51639 0.4811,-3.51639 0,0 0,-1.27869 0,-1.27869 0,0 0.2957,-1.27869 0.2957,-1.27869 0.6793,-4.17172 1.05012,-7.70089 3.6027,-11.27802 2.01873,-2.8291 4.92934,-5.04283 8.24754,-6.13131 0.98459,-0.32127 2.97135,-0.7768 3.99589,-0.92385 0,0 1.11885,-0.0991 1.11885,-0.0991 0,0 1.11886,-0.23975 1.11886,-0.23975 0,0 2.71721,-0.21578 2.71721,-0.21578 1.5536,-0.15824 1.04692,-0.27012 3.03688,-0.2925 0,0 3.19672,-0.2925 3.19672,-0.2925 0,0 4.47541,-0.18701 4.47541,-0.18701 0,0 4.15573,-0.31967 4.15573,-0.31967 0,0 2.71721,0 2.71721,0 0,0 2.55738,-0.15983 2.55738,-0.15983 0,0 3.35655,0 3.35655,0 0,0 1.75819,-0.14546 1.75819,-0.14546 z m 37.08194,45.85533 c 0,0 -8.15164,-4.62725 -8.15164,-4.62725 0,0 -16.14343,-9.34241 -16.14343,-9.34241 0,0 -6.27356,-3.62667 -6.27356,-3.62667 -0.975,-0.57861 -2.39594,-1.59677 -3.47643,-1.74381 0,0 0,39.1598 0,39.1598 1.08049,-0.14705 2.50143,-1.1652 3.47643,-1.74381 0,0 6.27356,-3.62668 6.27356,-3.62668 0,0 16.14343,-9.34241 16.14343,-9.34241 0,0 8.15164,-4.62725 8.15164,-4.62725 z"
           style="display:inline;fill:#771e1e;fill-opacity:1;stroke:#d70000;stroke-opacity:1" /><path
           id="path18"
           fill="none"
           stroke="#000000"
           stroke-width="0.0511474"
           d="m 383.77621,353.89612 c 0,0 4.95491,0 4.95491,0 0,0 8.79098,0 8.79098,0 0,0 17.90162,0 17.90162,0 0,0 2.39754,0.14226 2.39754,0.14226 0,0 1.27869,0 1.27869,0 0,0 2.39754,0.15984 2.39754,0.15984 0,0 3.51639,0 3.51639,0 0,0 1.91803,0.15344 1.91803,0.15344 0,0 2.71721,0 2.71721,0 0,0 3.67623,0.32606 3.67623,0.32606 0,0 1.91803,0 1.91803,0 0,0 5.43442,0.47951 5.43442,0.47951 0,0 1.7582,0 1.7582,0 0,0 1.43852,0.31967 1.43852,0.31967 0,0 1.27869,0 1.27869,0 0,0 2.55738,0.42836 2.55738,0.42836 0,0 1.27868,0.1023 1.27868,0.1023 3.62028,0.58979 7.00082,2.1418 9.68286,4.66561 2.94578,2.77315 4.41307,6.73388 5.10836,10.62749 0,0 0.12468,1.11885 0.12468,1.11885 0,0 0.47471,3.03688 0.47471,3.03688 0,0 0.27332,1.27869 0.27332,1.27869 0,0 0,1.11885 0,1.11885 0,0 0.4795,4.95491 0.4795,4.95491 0,0 0.31967,3.19672 0.31967,3.19672 0,0 0.15984,4.47541 0.15984,4.47541 0,0 0.15984,2.2377 0.15984,2.2377 0,0 0.15984,3.03689 0.15984,3.03689 0,0 0,9.59015 0,9.59015 0,0 -0.31968,4.47541 -0.31968,4.47541 0,0 -0.15984,5.11475 -0.15984,5.11475 0,0 -0.2925,2.55737 -0.2925,2.55737 0,0 -0.21418,3.35656 -0.21418,3.35656 0,0 -0.29249,1.75819 -0.29249,1.75819 0,0 0,1.27869 0,1.27869 0,0 -0.2941,1.43853 -0.2941,1.43853 -0.75443,5.7509 -1.88128,10.94717 -6.59644,14.85674 -3.8856,3.22229 -8.69987,3.97993 -13.56847,4.33795 -1.24192,0.0911 -0.80078,0.28132 -2.87704,0.30528 0,0 -5.7541,0.47951 -5.7541,0.47951 0,0 -1.91803,0 -1.91803,0 0,0 -3.83606,0.31967 -3.83606,0.31967 0,0 -2.39754,0 -2.39754,0 0,0 -2.55738,0.15985 -2.55738,0.15985 0,0 -3.83606,0 -3.83606,0 0,0 -5.11475,0.31967 -5.11475,0.31967 0,0 -31.64751,0 -31.64751,0 0,0 -2.39755,-0.15985 -2.39755,-0.15985 0,0 -0.95901,0 -0.95901,0 0,0 -2.39754,-0.15982 -2.39754,-0.15982 0,0 -3.5164,0 -3.5164,0 0,0 -1.91802,-0.15344 -1.91802,-0.15344 0,0 -2.71721,0 -2.71721,0 0,0 -3.19672,-0.31328 -3.19672,-0.31328 0,0 -2.39754,0 -2.39754,0 0,0 -6.07377,-0.49231 -6.07377,-0.49231 -1.71024,-0.0191 -1.33783,-0.12466 -2.71721,-0.2909 0,0 -2.55738,-0.21736 -2.55738,-0.21736 0,0 -1.11885,-0.23976 -1.11885,-0.23976 0,0 -1.27868,-0.1023 -1.27868,-0.1023 -3.18553,-0.51786 -6.69393,-1.91163 -9.12983,-4.06942 -2.46467,-2.18337 -4.3875,-5.47599 -5.18508,-8.66631 0,0 -0.60897,-3.03689 -0.60897,-3.03689 0,0 -0.22857,-0.959 -0.22857,-0.959 0,0 -0.22057,-2.07788 -0.22057,-2.07788 0,0 -0.23976,-1.11885 -0.23976,-1.11885 0,0 -0.0975,-1.43852 -0.0975,-1.43852 0,0 -0.43315,-4.63524 -0.43315,-4.63524 0,0 -0.31968,-3.19672 -0.31968,-3.19672 0,0 -0.15983,-4.4754 -0.15983,-4.4754 0,0 -0.31968,-5.11475 -0.31968,-5.11475 0,0 0,-10.38934 0,-10.38934 0,0 0.31968,-4.95491 0.31968,-4.95491 0,0 0.15983,-5.11475 0.15983,-5.11475 0,0 0.31968,-2.55738 0.31968,-2.55738 0,0 0,-1.75819 0,-1.75819 0,0 0.4811,-3.51639 0.4811,-3.51639 0,0 0,-1.27869 0,-1.27869 0,0 0.2957,-1.27869 0.2957,-1.27869 0.6793,-4.17172 1.05012,-7.70089 3.6027,-11.27802 2.01873,-2.8291 4.92934,-5.04283 8.24754,-6.13131 0.98459,-0.32127 2.97135,-0.7768 3.99589,-0.92385 0,0 1.11885,-0.0991 1.11885,-0.0991 0,0 1.11886,-0.23975 1.11886,-0.23975 0,0 2.71721,-0.21578 2.71721,-0.21578 1.5536,-0.15824 1.04692,-0.27012 3.03688,-0.2925 0,0 3.19672,-0.2925 3.19672,-0.2925 0,0 4.47541,-0.18701 4.47541,-0.18701 0,0 4.15573,-0.31967 4.15573,-0.31967 0,0 2.71721,0 2.71721,0 0,0 2.55738,-0.15983 2.55738,-0.15983 0,0 3.35655,0 3.35655,0 0,0 1.75819,-0.14546 1.75819,-0.14546 z m 37.08194,45.85533 c 0,0 -8.15164,-4.62725 -8.15164,-4.62725 0,0 -16.14343,-9.34241 -16.14343,-9.34241 0,0 -6.27356,-3.62667 -6.27356,-3.62667 -0.975,-0.57861 -2.39594,-1.59677 -3.47643,-1.74381 0,0 0,39.1598 0,39.1598 1.08049,-0.14705 2.50143,-1.1652 3.47643,-1.74381 0,0 6.27356,-3.62668 6.27356,-3.62668 0,0 16.14343,-9.34241 16.14343,-9.34241 0,0 8.15164,-4.62725 8.15164,-4.62725 z"
           style="display:inline;fill:#ff2b2b;fill-opacity:1;stroke:#d70000;stroke-opacity:1" /></g><g
         id="g18"
         style="display:none"
         transform="matrix(2.8393474,0,0,2.8393474,-735.73809,-735.73896)"><path
           id="Selection-7"
           fill="none"
           stroke="#000000"
           stroke-width="0.0479567"
           d="m 338.25512,446.37877 c 0,0 0,-91.56715 0,-91.56715 0.003,-1.52412 0.56648,-1.61554 1.64851,-2.69756 0,0 3.89647,-3.89647 3.89647,-3.89647 0,0 15.28617,-15.28617 15.28617,-15.28617 0,0 3.14715,-3.14716 3.14715,-3.14716 1.13148,-1.13147 1.35327,-1.79538 2.99729,-1.79837 0,0 96.51268,0 96.51268,0 0,0 0,71.03573 0,71.03573 -0.003,0.39715 0.0285,0.83475 -0.15287,1.19892 -0.2008,0.40163 -0.8602,1.01308 -1.19591,1.34877 0,0 -2.39784,2.39784 -2.39784,2.39784 0,0 -11.38967,11.38969 -11.38967,11.38969 0,0 -23.37886,23.37885 -23.37886,23.37885 0,0 -5.54498,5.54498 -5.54498,5.54498 -0.48857,0.48857 -1.671,1.79538 -2.24797,2.00819 -0.29073,0.1079 -0.73585,0.0899 -1.04905,0.0899 0,0 -18.13359,0 -18.13359,0 -1.64402,0.003 -1.86581,0.66691 -2.99731,1.79838 0,0 -4.19619,4.1962 -4.19619,4.1962 0,0 -14.08726,14.08725 -14.08726,14.08725 0,0 -3.7466,3.74662 -3.7466,3.74662 -0.6729,0.67289 -1.30982,1.52262 -2.24797,1.79837 0,0 0.14987,-3.14715 0.14987,-3.14715 0,0 0,-5.39512 0,-5.39512 0,0 0,-17.08455 0,-17.08455 z M 451.40274,338.32653 c 0,0 -82.27555,0 -82.27555,0 0,0 0,77.18017 0,77.18017 0,0 23.07912,0 23.07912,0 0,0 0,17.98374 0,17.98374 0.98758,-0.70736 3.75261,-3.60274 4.79565,-4.6458 0,0 8.69215,-8.69214 8.69215,-8.69214 0,0 2.8474,-2.84742 2.8474,-2.84742 1.2289,-1.22889 1.37877,-1.79538 3.14718,-1.79838 0,0 18.13359,0 18.13359,0 0.3132,0 0.75829,0.018 1.04903,-0.0899 0.64292,-0.23679 2.68259,-2.44279 3.29702,-3.05724 0,0 9.14175,-9.14173 9.14175,-9.14173 0,0 5.99457,-5.99457 5.99457,-5.99457 0.48854,-0.48856 1.79537,-1.67099 2.00818,-2.24797 0.1079,-0.29073 0.0899,-0.73583 0.0899,-1.04905 z m -53.95119,18.1336 c 0,0 10.19078,0 10.19078,0 0,0 0,30.7222 0,30.7222 0,0 -10.19078,0 -10.19078,0 z m 28.32437,0 c 0,0 10.04094,0 10.04094,0 0,0 0,30.7222 0,30.7222 0,0 -10.04094,0 -10.04094,0 z"
           style="display:inline;fill:#8f1e7c;fill-opacity:1" /><path
           id="path19"
           fill="none"
           stroke="#000000"
           stroke-width="0.0479567"
           d="m 338.25512,446.37877 c 0,0 0,-91.56715 0,-91.56715 0.003,-1.52412 0.56648,-1.61554 1.64851,-2.69756 0,0 3.89647,-3.89647 3.89647,-3.89647 0,0 15.28617,-15.28617 15.28617,-15.28617 0,0 3.14715,-3.14716 3.14715,-3.14716 1.13148,-1.13147 1.35327,-1.79538 2.99729,-1.79837 0,0 96.51268,0 96.51268,0 0,0 0,71.03573 0,71.03573 -0.003,0.39715 0.0285,0.83475 -0.15287,1.19892 -0.2008,0.40163 -0.8602,1.01308 -1.19591,1.34877 0,0 -2.39784,2.39784 -2.39784,2.39784 0,0 -11.38967,11.38969 -11.38967,11.38969 0,0 -23.37886,23.37885 -23.37886,23.37885 0,0 -5.54498,5.54498 -5.54498,5.54498 -0.48857,0.48857 -1.671,1.79538 -2.24797,2.00819 -0.29073,0.1079 -0.73585,0.0899 -1.04905,0.0899 0,0 -18.13359,0 -18.13359,0 -1.64402,0.003 -1.86581,0.66691 -2.99731,1.79838 0,0 -4.19619,4.1962 -4.19619,4.1962 0,0 -14.08726,14.08725 -14.08726,14.08725 0,0 -3.7466,3.74662 -3.7466,3.74662 -0.6729,0.67289 -1.30982,1.52262 -2.24797,1.79837 0,0 0.14987,-3.14715 0.14987,-3.14715 0,0 0,-5.39512 0,-5.39512 0,0 0,-17.08455 0,-17.08455 z M 451.40274,338.32653 c 0,0 -82.27555,0 -82.27555,0 0,0 0,77.18017 0,77.18017 0,0 23.07912,0 23.07912,0 0,0 0,17.98374 0,17.98374 0.98758,-0.70736 3.75261,-3.60274 4.79565,-4.6458 0,0 8.69215,-8.69214 8.69215,-8.69214 0,0 2.8474,-2.84742 2.8474,-2.84742 1.2289,-1.22889 1.37877,-1.79538 3.14718,-1.79838 0,0 18.13359,0 18.13359,0 0.3132,0 0.75829,0.018 1.04903,-0.0899 0.64292,-0.23679 2.68259,-2.44279 3.29702,-3.05724 0,0 9.14175,-9.14173 9.14175,-9.14173 0,0 5.99457,-5.99457 5.99457,-5.99457 0.48854,-0.48856 1.79537,-1.67099 2.00818,-2.24797 0.1079,-0.29073 0.0899,-0.73583 0.0899,-1.04905 z m -53.95119,18.1336 c 0,0 10.19078,0 10.19078,0 0,0 0,30.7222 0,30.7222 0,0 -10.19078,0 -10.19078,0 z m 28.32437,0 c 0,0 10.04094,0 10.04094,0 0,0 0,30.7222 0,30.7222 0,0 -10.04094,0 -10.04094,0 z"
           style="display:none;fill:#ff4fe1;fill-opacity:1" /></g></g><path
       id="Selection-25"
       fill="none"
       stroke="#000000"
       stroke-width="0.0977366"
       d="m 277.82894,55.16724 c 0,0 10.07909,0 10.07909,0 0,0 18.02016,0 18.02016,0 0,0 55.58762,0 55.58762,0 0,0 105.98304,0 105.98304,0 0,0 52.83878,0 52.83878,0 3.46045,0.02135 8.06019,1.136182 11.30083,2.363999 4.96928,1.884487 9.57816,4.63333 13.41122,8.356468 6.52086,6.328446 11.31298,16.749599 11.32825,25.909343 0,0 0,161.26522 0,161.26522 -0.0151,9.00704 -4.7066,19.31518 -11.02282,25.62835 -6.32537,6.32538 -16.6091,11.00757 -25.62835,11.02283 0,0 -154.54579,0 -154.54579,0 0,0 -56.80936,0 -56.80936,0 0,0 -28.71012,0 -28.71012,0 -2.32428,-0.0274 -5.9833,-0.7605 -8.24649,-1.39885 -13.77168,-3.88502 -24.16536,-14.74293 -26.99972,-28.83837 -0.43065,-2.14715 -0.79105,-4.21794 -0.79411,-6.41396 0,0 0,-161.26522 0,-161.26522 0.0214,-13.551776 8.894,-26.514084 20.76902,-32.601233 4.54471,-2.330406 8.46947,-3.170324 13.43875,-4.028577 z m 2.74885,26.263633 c -1.48435,0.317642 -2.91988,0.638339 -4.27596,1.316387 -6.25518,3.130621 -6.414,8.484751 -6.414,14.547465 0,0 0,7.635665 0,7.635665 0,0 0,71.46981 0,71.46981 0,0 0,50.08997 0,50.08997 0,0 0,25.04497 0,25.04497 0.0886,7.43408 5.70541,11.89941 12.82794,11.91163 0,0 134.08224,0 134.08224,0 0,0 87.04658,0 87.04658,0 0,0 9.16279,0 9.16279,0 6.04747,0 11.08398,0.47953 15.03617,-5.19225 0.68718,-0.98958 1.09341,-1.90586 1.44466,-3.05427 0.52535,-1.71343 0.62001,-2.81603 0.62308,-4.58139 0,0 0,-130.11171 0,-130.11171 0,0 0,-26.266691 0,-26.266691 -0.0124,-7.629553 -4.78297,-12.815696 -12.5225,-12.809586 0,0 -157.60009,0 -157.60009,0 0,0 -52.53339,0 -52.53339,0 0,0 -17.40929,0 -17.40929,0 z m 69.94268,38.899117 c 9.11697,-1.10869 19.29987,1.69207 26.87757,6.74689 2.28454,1.52407 5.18,3.7995 6.86599,5.95275 3.82085,4.87461 4.28204,13.48459 -0.46431,17.96825 -2.97178,2.80382 -6.139,3.45743 -10.06683,3.41161 -6.01386,-0.0733 -7.51349,-3.17033 -11.60621,-5.6626 -2.193,-1.33472 -4.76464,-2.10438 -7.33024,-2.25099 -6.72852,-0.38179 -13.28607,5.37855 -16.25479,10.96786 -5.81534,10.9526 -4.71579,27.29292 4.64858,36.01285 5.23196,4.87154 12.17432,6.45061 18.63101,2.98401 3.74454,-2.00971 4.68219,-5.03954 10.38453,-5.37245 6.85072,-0.39705 13.8786,5.27777 14.32758,12.18957 0.21987,3.35969 -1.31032,6.84156 -3.30168,9.46822 -4.73721,6.25514 -14.69712,10.36924 -22.32666,11.47489 -2.98099,0.4337 -5.55574,0.47035 -8.55199,0.43675 -3.3261,-0.0397 -7.83112,-0.98347 -10.99539,-2.03719 -15.82715,-5.27166 -26.17199,-18.9731 -30.58536,-34.614 -1.10261,-3.90945 -2.08915,-9.39186 -2.09524,-13.43877 0,0 0,-4.88682 0,-4.88682 0,0 0.57119,-5.49768 0.57119,-5.49768 2.20816,-15.8944 11.25187,-31.57804 25.69551,-39.25035 5.55267,-2.95043 9.514,-3.72316 15.57674,-4.6028 z m 103.84506,1.15757 c 0,0 3.97053,0 3.97053,0 8.47862,0.0366 17.80938,3.35359 24.4341,8.62526 4.00414,3.18559 7.26608,6.65829 7.33024,12.07962 0.0398,3.38106 -0.14661,5.93444 -2.16852,8.84514 -3.12453,4.49588 -10.3081,5.72369 -15.24076,3.95528 -0.99574,-0.35735 -2.80995,-1.19727 -3.54909,-1.92419 -1.04457,-1.02012 -2.51979,-4.25764 -5.91914,-5.6565 -5.91,-2.42814 -12.58968,0.45508 -16.74657,4.87156 -2.56561,2.7244 -4.69439,6.49031 -5.79394,10.06685 -0.94072,3.06343 -1.21866,5.68399 -1.29804,8.85737 -0.18023,7.21112 0.90102,12.91039 5.12196,18.93646 3.04515,4.34622 8.64362,8.23735 14.1352,8.23735 2.46777,0 5.85497,-0.88574 7.94105,-2.20214 3.53683,-2.23571 4.82573,-4.8013 9.77366,-5.09145 6.20629,-0.3604 13.09056,4.43479 14.21458,10.66244 0.69331,3.86059 -0.68418,7.96247 -3.07263,10.99535 -1.62483,2.06469 -4.94486,4.41953 -7.17141,5.90391 -5.87946,3.92167 -13.59759,7.21723 -20.769,7.22944 0,0 -5.19222,0 -5.19222,0 -3.90335,-0.0459 -9.54154,-1.56072 -13.13338,-3.10008 -14.7368,-6.31317 -24.10424,-19.868 -27.9068,-35.07824 -0.96519,-3.85449 -1.67072,-7.93192 -1.71961,-11.91164 0,0 0,-4.5814 0,-4.5814 0.0247,-2.07079 0.49179,-5.24722 0.83999,-7.33023 2.53194,-15.15832 11.38015,-30.02343 25.12128,-37.47278 6.08108,-3.29861 10.15547,-3.90335 16.79852,-4.91738 z"
       style="display:none;fill:#000000;fill-opacity:1" /></g></svg>
