<?xml version="1.0" encoding="UTF-8" standalone="no"?>
<svg
   width="256"
   height="256"
   viewBox="0 0 799.9991 800"
   version="1.1"
   id="svg1"
   xml:space="preserve"
   xmlns="http://www.w3.org/2000/svg"
   xmlns:svg="http://www.w3.org/2000/svg"><defs
     id="defs1"><linearGradient
       id="swatch1"
       gradientTransform="matrix(0.96583526,0,0,0.96583526,13.665879,13.665894)"><stop
         style="stop-color:#bae9ff;stop-opacity:1;"
         offset="0"
         id="stop1" /></linearGradient><linearGradient
       id="swatch35"
       gradientTransform="matrix(0.12936757,0,0,0.12936757,-2400.5599,-3651.2994)"><stop
         style="stop-color:#5c73b3;stop-opacity:1;"
         offset="0"
         id="stop35" /></linearGradient></defs><g
     id="g62"
     transform="matrix(0.49999998,0,0,0.49999998,267.67162,980.21226)"
     style="display:inline"><path
       id="Selection-79"
       fill="none"
       stroke="#000000"
       stroke-width="1"
       d="m -107.21915,-1647.9246 c 1.625,-19.875 5.4687,-44.25 13.5937,-62.5 25.625,-57.5 79.8125,-81.1563 139.5313,-81.25 0,0 437.4999,0 437.4999,0 87.1563,0.125 149.9376,54.4062 150.0001,143.75 0,0 256.25,0 256.25,0 94.1562,0.1562 174.84375,76.8437 175.00005,171.875 0,0 0,418.75 0,418.75 0,0 0,353.12496 0,353.12496 -0.1563,100.125 -82.93755,174.8438 -181.25005,175 0,0 -1240.625,0 -1240.625,0 -94.2813,-0.4375 -177.9688,-75.7812 -178.125,-171.875 0,0 0,-774.99996 0,-774.99996 0.1562,-94.5 81.2812,-171.7188 175,-171.875 z m 906.25,182.1562 c -20.5625,3.4375 -34.8438,8.0938 -49.3438,24.2188 -40.0625,44.5937 -16.5625,122.1875 52.4688,127.4375 86.125,6.5 111.0312,-119.5313 31.25,-147.0625 -12.5938,-4.3438 -21.1875,-5.5625 -34.375,-4.5938 z m -537.5,87.75 c -42.625,4.6563 -64.375,4.9063 -106.25,20.9063 -68.5625,26.25 -125.2813,83.3437 -155.2813,149.8125 -69.3125,153.625 4.125,330.28126 161.5313,391.21876 25.9062,10.0312 59.6875,17.8125 87.5,18.1562 55.2812,0.625 93.1875,-4.2812 143.75,-28.9375 35.75,-17.4375 63.3125,-38.7812 90.3437,-67.9375 101.9063,-109.93746 92.9063,-290.65626 -10.4063,-395.99996 -55.3437,-56.375 -132.7812,-86.5 -211.1874,-87.2188 z"
       style="display:inline;fill:url(#swatch1);stroke:none" /><path
       id="Selection #1-37"
       fill="none"
       stroke="#000000"
       stroke-width="1"
       d="m 795.90585,-1465.7059 c 5.9375,-0.3125 9.5,-0.9062 15.625,0 11.75,0.5938 27.5937,5.5313 37.4687,11.9375 62.8438,40.875 29.9375,145.4688 -46.8437,139.6563 -70.75,-5.375 -93.4688,-86.5938 -49.6875,-130.375 13.4062,-13.375 25.5,-17.3438 43.4375,-21.2188 z"
       style="display:inline;fill:#ff0000;fill-opacity:1;stroke:none" /></g></svg>
