<?xml version="1.0" encoding="UTF-8" standalone="no"?>
<svg
   width="256"
   height="256"
   viewBox="0 0 799.9991 800"
   version="1.1"
   id="svg1"
   xml:space="preserve"
   xmlns="http://www.w3.org/2000/svg"
   xmlns:svg="http://www.w3.org/2000/svg"><defs
     id="defs1"><linearGradient
       id="swatch41"><stop
         style="stop-color:#000000;stop-opacity:1;"
         offset="0"
         id="stop41" /></linearGradient><linearGradient
       id="swatch1"><stop
         style="stop-color:#bae9ff;stop-opacity:1;"
         offset="0"
         id="stop1" /></linearGradient><linearGradient
       id="swatch35"><stop
         style="stop-color:#5c73b3;stop-opacity:1;"
         offset="0"
         id="stop35" /></linearGradient></defs><g
     id="g12"
     style="display:inline"
     transform="matrix(0.98323337,0,0,0.95838628,-23.542626,-32.010872)"><path
       id="path9"
       fill="none"
       stroke="#000000"
       stroke-width="1"
       d="m 378.96425,74.13186 -20.31456,3.43053 c -15.39844,4.24384 -40.58849,18.72713 -53.83359,28.14282 -61.75627,43.9295 -95.32608,115.05293 -94.46272,191.5672 l 1.74706,18.76883 c 2.89482,24.15966 6.03342,38.74721 14.91089,61.52006 1.59469,4.08744 8.61337,20.93768 11.40662,22.95011 2.03146,1.44937 7.00853,1.00101 9.51738,1.03229 9.31422,0.1147 21.39123,2.50251 30.47184,4.82776 51.10128,13.05476 91.42569,52.51102 108.00237,103.61438 4.51999,13.92021 5.89122,25.13981 6.86632,39.62309 0.24378,3.59736 1.00557,5.59936 0.74148,9.38441 -2.02129,29.19596 -6.65301,51.36404 -21.01541,77.16075 -20.54818,36.89119 -57.541,64.05386 -97.64195,73.78237 -8.45085,2.05414 -16.76967,2.85703 -25.3932,3.47223 -4.45904,0.32324 -6.04358,1.1157 -11.17301,0.90716 -31.5282,-1.25125 -62.52822,-10.58353 -88.36834,-29.60262 l -29.45612,-26.66216 c 3.04718,8.17486 9.4158,15.36958 14.95152,21.89697 14.36239,16.95451 34.07768,32.49093 53.10226,43.63753 88.00269,51.5413 201.1548,36.31769 272.20498,-38.42397 6.51082,-6.85062 13.86469,-16.23504 19.43088,-23.9824 1.68611,-2.35653 5.76934,-7.7265 6.2061,-10.42712 0.55865,-3.50352 -4.83486,-12.02248 -6.57176,-15.6407 -4.93644,-10.27072 -8.48133,-21.19835 -11.05112,-32.3241 -8.71495,-37.72535 -3.56521,-77.76552 15.22576,-111.57027 9.77131,-17.56972 22.43744,-32.81418 37.71399,-45.55613 55.62127,-46.37987 135.79269,-45.38929 190.95689,1.19912 13.92563,11.7618 25.92138,26.35978 35.0934,42.27158 13.84438,24.0241 20.70054,51.51002 21.74674,79.24618 0.27425,7.20514 -2.28538,27.96556 -3.81913,35.45224 -1.03605,5.01544 -4.1848,11.88692 -3.25033,16.6834 17.14549,-30.91643 20.71069,-65.13827 20.31456,-100.10043 -0.22346,-19.15464 -5.12943,-43.27259 -10.82766,-61.52006 -22.20382,-71.1443 -74.93027,-125.8763 -144.57875,-148.08608 -17.62288,-5.63065 -30.53278,-7.72651 -48.75495,-9.54083 -4.3981,-0.43794 -6.40924,-1.05314 -11.173,-0.84459 -7.29293,0.31281 -8.73527,5.8809 -12.62551,11.44898 -6.64286,9.49912 -14.49444,18.38303 -22.96561,26.20338 -21.87878,20.20777 -47.23136,32.44922 -76.13898,37.48552 -5.63729,0.98015 -8.2985,1.92902 -14.22019,2.00201 H 423.65629 C 402.38694,377.53 374.9826,368.09347 356.61824,357.30139 312.75909,331.52553 284.02415,285.33335 280.34721,233.66693 L 279.4229,223.2398 c -0.20315,-18.96695 4.35747,-43.03276 11.60977,-60.47734 11.67072,-28.11154 30.00461,-51.52044 54.41256,-69.11101 6.59207,-4.75477 13.08257,-8.49812 20.31456,-12.1059 4.50983,-2.25226 9.54784,-3.82676 13.20446,-7.41369 z M 120.96931,657.00835 h -1.01573 l 1.01573,1.04272 z"
       style="display:inline;fill:#ffffff;fill-opacity:1;stroke:#ffffff;stroke-width:3.0874;stroke-dasharray:none;stroke-opacity:1" /><path
       id="path10"
       fill="none"
       stroke="#000000"
       stroke-width="1"
       d="m 421.62484,34.946711 c 0,0 30.47184,0.604773 30.47184,0.604773 0,0 12.18874,0.948869 12.18874,0.948869 30.6953,2.200124 61.11636,8.362557 90.3998,18.164058 19.82701,6.642081 39.20711,14.30602 57.8965,23.898979 101.03448,51.85412 178.39233,147.66899 208.65087,259.37482 7.34372,27.10011 11.97544,54.32534 13.88501,82.37432 0,0 0.92431,10.42713 0.92431,10.42713 0,0 0,38.58038 0,38.58038 0,0 -1.85878,22.93968 -1.85878,22.93968 -3.23002,33.11656 -9.47674,64.42923 -20.17236,95.92958 -40.41582,118.93183 -133.31432,214.29835 -249.16827,255.7879 -30.68515,10.97976 -61.18746,17.39245 -93.44699,20.70827 0,0 -22.34602,1.90817 -22.34602,1.90817 0,0 -37.58194,0 -37.58194,0 0,0 -21.33029,-1.91859 -21.33029,-1.91859 -35.82473,-3.93103 -69.97351,-11.40728 -103.60427,-24.9834 C 238.24528,820.21377 197.13876,794.85499 158.55125,759.01695 90.80219,696.09966 46.099983,610.62848 31.006263,518.32754 28.96465,505.7837 26.526902,481.86387 26.506588,469.32004 c 0,0 -1.015728,-20.85426 -1.015728,-20.85426 0,0 0.975099,-10.42713 0.975099,-10.42713 0,0 0,-10.42713 0,-10.42713 0,0 1.899411,-21.89697 1.899411,-21.89697 C 32.875203,359.47023 45.541333,314.26863 64.880796,272.2473 113.86937,165.79676 205.56931,86.237765 314.97338,52.109764 c 18.31358,-5.703639 48.10489,-12.34572 67.03806,-14.295593 0,0 26.40893,-2.262687 26.40893,-2.262687 5.22084,-0.06256 7.85158,0.177261 13.20447,-0.604773 z M 378.96425,74.13186 c 0,0 -20.31456,3.430525 -20.31456,3.430525 -15.39844,4.243842 -40.58849,18.727132 -53.83359,28.142825 -61.75627,43.9295 -95.32608,115.05293 -94.46272,191.5672 0,0 1.74706,18.76883 1.74706,18.76883 2.89482,24.15966 6.03342,38.74721 14.91089,61.52006 1.59469,4.08744 8.61337,20.93768 11.40662,22.95011 2.03146,1.44937 7.00853,1.00101 9.51738,1.03229 9.31422,0.1147 21.39123,2.50251 30.47184,4.82776 51.10128,13.05476 91.42569,52.51102 108.00237,103.61438 4.51999,13.92021 5.89122,25.13981 6.86632,39.62309 0.24378,3.59736 1.00557,5.59936 0.74148,9.38441 -2.02129,29.19596 -6.65301,51.36404 -21.01541,77.16075 -20.54818,36.89119 -57.541,64.05386 -97.64195,73.78237 -8.45085,2.05414 -16.76967,2.85703 -25.3932,3.47223 -4.45904,0.32324 -6.04358,1.1157 -11.17301,0.90716 -31.5282,-1.25125 -62.52822,-10.58353 -88.36834,-29.60262 0,0 -29.45612,-26.66216 -29.45612,-26.66216 3.04718,8.17486 9.4158,15.36958 14.95152,21.89697 14.36239,16.95451 34.07768,32.49093 53.10226,43.63753 88.00269,51.5413 201.1548,36.31769 272.20498,-38.42397 6.51082,-6.85062 13.86469,-16.23504 19.43088,-23.9824 1.68611,-2.35653 5.76934,-7.7265 6.2061,-10.42712 0.55865,-3.50352 -4.83486,-12.02248 -6.57176,-15.6407 -4.93644,-10.27072 -8.48133,-21.19835 -11.05112,-32.3241 -8.71495,-37.72535 -3.56521,-77.76552 15.22576,-111.57027 9.77131,-17.56972 22.43744,-32.81418 37.71399,-45.55613 55.62127,-46.37987 135.79269,-45.38929 190.95689,1.19912 13.92563,11.7618 25.92138,26.35978 35.0934,42.27158 13.84438,24.0241 20.70054,51.51002 21.74674,79.24618 0.27425,7.20514 -2.28538,27.96556 -3.81913,35.45224 -1.03605,5.01544 -4.1848,11.88692 -3.25033,16.6834 17.14549,-30.91643 20.71069,-65.13827 20.31456,-100.10043 -0.22346,-19.15464 -5.12943,-43.27259 -10.82766,-61.52006 -22.20382,-71.1443 -74.93027,-125.8763 -144.57875,-148.08608 -17.62288,-5.63065 -30.53278,-7.72651 -48.75495,-9.54083 -4.3981,-0.43794 -6.40924,-1.05314 -11.173,-0.84459 -7.29293,0.31281 -8.73527,5.8809 -12.62551,11.44898 -6.64286,9.49912 -14.49444,18.38303 -22.96561,26.20338 -21.87878,20.20777 -47.23136,32.44922 -76.13898,37.48552 -5.63729,0.98015 -8.2985,1.92902 -14.22019,2.00201 0,0 -18.28311,0 -18.28311,0 -21.26935,-0.0313 -48.67369,-9.46783 -67.03805,-20.25991 -43.85915,-25.77586 -72.59409,-71.96804 -76.27103,-123.63446 0,0 -0.92431,-10.42713 -0.92431,-10.42713 -0.20315,-18.96695 4.35747,-43.03276 11.60977,-60.47734 11.67072,-28.11154 30.00461,-51.52044 54.41256,-69.111007 6.59207,-4.75477 13.08257,-8.498118 20.31456,-12.105904 4.50983,-2.25226 9.54784,-3.826757 13.20446,-7.413689 z M 120.96931,657.00835 c 0,0 -1.01573,0 -1.01573,0 0,0 1.01573,1.04272 1.01573,1.04272 z"
       style="display:inline;fill:#000000;fill-opacity:1;stroke:#ffffff;stroke-width:3.0874;stroke-dasharray:none;stroke-opacity:1" /><ellipse
       style="display:inline;fill:#00a100;fill-opacity:1;stroke:#004000;stroke-width:10.9567;stroke-dasharray:none;stroke-opacity:1"
       id="ellipse10"
       cx="658.67621"
       cy="213.15413"
       rx="171.93288"
       ry="172.77673" /><path
       id="path11"
       fill="none"
       stroke="#000000"
       stroke-width="0.152017"
       d="m 648.40624,96.381057 c 8.42337,-1.055802 26.06288,0.241819 34.78854,1.356616 34.13842,4.347077 65.60211,16.863347 93.52989,37.761157 5.5947,4.19373 14.54847,11.72001 19.39035,16.66872 2.60629,2.66605 5.64601,5.40287 7.22576,8.8475 1.40294,3.05535 1.36302,4.98411 1.32881,8.25769 -0.11407,9.96819 -7.33412,15.5598 -16.53883,15.32978 -8.01849,-0.20055 -11.03539,-5.44417 -16.53882,-10.36339 -9.35298,-8.34614 -17.74788,-15.17643 -28.51521,-21.57023 -21.80844,-12.94686 -46.16043,-21.15144 -71.28804,-22.96813 0,0 -6.84364,-0.53675 -6.84364,-0.53675 0,0 -13.6873,0 -13.6873,0 0,0 -5.70305,0.53675 -5.70305,0.53675 -27.25483,1.97005 -53.95077,11.44868 -76.99105,26.56612 -6.53,4.28809 -14.82792,10.64651 -20.53096,15.99629 0,0 -5.13275,4.73048 -5.13275,4.73048 -5.41219,5.20823 -7.53942,7.79171 -15.39821,7.60886 -9.82064,-0.23592 -14.93627,-7.4673 -14.82792,-17.09929 0.0798,-6.90106 2.94849,-9.54352 7.41396,-14.15601 5.83422,-6.02811 12.30147,-11.30712 18.82004,-16.50946 22.87492,-18.26126 52.73605,-31.06065 80.9832,-36.899997 0,0 21.67157,-3.114331 21.67157,-3.114331 z m 6.84364,62.522383 c 4.65939,-0.58392 18.31248,0.7137 23.38247,1.44511 25.99446,3.73364 50.75137,15.11742 70.71771,32.77115 5.60041,4.95462 12.34139,10.31032 12.541,18.62108 0.1882,8.21048 -3.41614,14.563 -11.40038,16.81616 -1.62537,0.46006 -3.45035,0.82576 -5.13274,0.69011 -7.51091,-0.61932 -10.10579,-4.2763 -15.39821,-9.08345 -4.51682,-4.09934 -8.60019,-7.42011 -13.6873,-10.75267 -15.9742,-10.46366 -33.60233,-16.30892 -52.468,-17.15826 0,0 -5.70302,-0.50728 -5.70302,-0.50728 0,0 -3.99214,0.55444 -3.99214,0.55444 0,0 -5.13274,0 -5.13274,0 -16.77835,1.73412 -33.05483,7.5322 -47.33525,16.7395 -5.05288,3.26178 -9.78642,7.06621 -14.2576,11.12427 -5.26963,4.78945 -9.42142,9.56711 -17.10913,8.96547 -9.61534,-0.7432 -15.05033,-7.64424 -14.82221,-17.38829 0.1825,-7.54989 4.75063,-11.33662 9.68947,-15.96681 0,0 10.26548,-8.72953 10.26548,-8.72953 16.64718,-12.89377 36.60782,-21.71179 57.03042,-25.6696 0,0 15.96853,-2.12928 15.96853,-2.12928 2.81159,-0.0295 3.95791,0.0826 6.84364,-0.34212 z m -1.14061,61.8087 c 0,0 5.13275,0 5.13275,0 18.49495,-0.0412 38.83772,7.50269 52.46796,20.57341 3.47316,3.33258 6.02242,5.75089 7.39117,10.56393 2.94846,10.38109 -3.51879,19.44092 -13.6645,20.97449 -9.04502,1.36252 -14.42298,-6.60025 -21.10125,-11.23043 -7.71051,-5.34978 -17.55967,-8.08073 -26.8043,-7.97455 -8.0356,0.10026 -17.86764,3.36204 -24.52308,7.97455 -8.9823,6.22864 -14.89064,16.00219 -27.37461,9.23679 -7.32269,-3.97546 -9.98031,-13.69004 -6.64404,-21.34019 1.26036,-2.88428 2.74316,-4.55352 4.95593,-6.65333 9.40433,-8.93598 20.65073,-15.78985 33.05485,-19.21088 3.66706,-1.00861 7.64208,-1.81079 11.40609,-2.28265 z m 1.71091,60.88858 c 6.50718,-0.86117 13.56754,1.29171 18.14708,6.28172 8.76558,9.55532 7.37973,25.96449 -3.31917,33.3551 -2.91995,2.01721 -5.68022,2.93146 -9.12487,3.49182 -19.8865,3.24409 -31.64618,-22.12467 -18.14706,-36.84692 3.59861,-3.9224 7.45955,-5.32031 12.44402,-6.28172 z"
       style="display:inline;fill:#ffffff;fill-opacity:1;stroke:#ffffff;stroke-width:0.281625;stroke-dasharray:none;stroke-opacity:1" /></g></svg>
