<?xml version="1.0" encoding="UTF-8" standalone="no"?>
<svg
   width="256"
   height="256"
   viewBox="0 0 799.9991 800"
   version="1.1"
   id="svg1"
   xml:space="preserve"
   xmlns="http://www.w3.org/2000/svg"
   xmlns:svg="http://www.w3.org/2000/svg"><defs
     id="defs1" /><g
     id="layer1"
     style="display:inline"><g
       id="g8"
       style="display:inline"
       transform="matrix(0.98511759,0,0,0.96017175,-24.35426,-32.815712)"><path
         id="Selection-0-5"
         fill="none"
         stroke="#000000"
         stroke-width="1"
         d="m 378.96425,74.13186 -20.31456,3.43053 c -15.39844,4.24384 -40.58849,18.72713 -53.83359,28.14282 -61.75627,43.9295 -95.32608,115.05293 -94.46272,191.5672 l 1.74706,18.76883 c 2.89482,24.15966 6.03342,38.74721 14.91089,61.52006 1.59469,4.08744 8.61337,20.93768 11.40662,22.95011 2.03146,1.44937 7.00853,1.00101 9.51738,1.03229 9.31422,0.1147 21.39123,2.50251 30.47184,4.82776 51.10128,13.05476 91.42569,52.51102 108.00237,103.61438 4.51999,13.92021 5.89122,25.13981 6.86632,39.62309 0.24378,3.59736 1.00557,5.59936 0.74148,9.38441 -2.02129,29.19596 -6.65301,51.36404 -21.01541,77.16075 -20.54818,36.89119 -57.541,64.05386 -97.64195,73.78237 -8.45085,2.05414 -16.76967,2.85703 -25.3932,3.47223 -4.45904,0.32324 -6.04358,1.1157 -11.17301,0.90716 -31.5282,-1.25125 -62.52822,-10.58353 -88.36834,-29.60262 l -29.45612,-26.66216 c 3.04718,8.17486 9.4158,15.36958 14.95152,21.89697 14.36239,16.95451 34.07768,32.49093 53.10226,43.63753 88.00269,51.5413 201.1548,36.31769 272.20498,-38.42397 6.51082,-6.85062 13.86469,-16.23504 19.43088,-23.9824 1.68611,-2.35653 5.76934,-7.7265 6.2061,-10.42712 0.55865,-3.50352 -4.83486,-12.02248 -6.57176,-15.6407 -4.93644,-10.27072 -8.48133,-21.19835 -11.05112,-32.3241 -8.71495,-37.72535 -3.56521,-77.76552 15.22576,-111.57027 9.77131,-17.56972 22.43744,-32.81418 37.71399,-45.55613 55.62127,-46.37987 135.79269,-45.38929 190.95689,1.19912 13.92563,11.7618 25.92138,26.35978 35.0934,42.27158 13.84438,24.0241 20.70054,51.51002 21.74674,79.24618 0.27425,7.20514 -2.28538,27.96556 -3.81913,35.45224 -1.03605,5.01544 -4.1848,11.88692 -3.25033,16.6834 17.14549,-30.91643 20.71069,-65.13827 20.31456,-100.10043 -0.22346,-19.15464 -5.12943,-43.27259 -10.82766,-61.52006 -22.20382,-71.1443 -74.93027,-125.8763 -144.57875,-148.08608 -17.62288,-5.63065 -30.53278,-7.72651 -48.75495,-9.54083 -4.3981,-0.43794 -6.40924,-1.05314 -11.173,-0.84459 -7.29293,0.31281 -8.73527,5.8809 -12.62551,11.44898 -6.64286,9.49912 -14.49444,18.38303 -22.96561,26.20338 -21.87878,20.20777 -47.23136,32.44922 -76.13898,37.48552 -5.63729,0.98015 -8.2985,1.92902 -14.22019,2.00201 H 423.65629 C 402.38694,377.53 374.9826,368.09347 356.61824,357.30139 312.75909,331.52553 284.02415,285.33335 280.34721,233.66693 L 279.4229,223.2398 c -0.20315,-18.96695 4.35747,-43.03276 11.60977,-60.47734 11.67072,-28.11154 30.00461,-51.52044 54.41256,-69.11101 6.59207,-4.75477 13.08257,-8.49812 20.31456,-12.1059 4.50983,-2.25226 9.54784,-3.82676 13.20446,-7.41369 z M 120.96931,657.00835 h -1.01573 l 1.01573,1.04272 z"
         style="display:inline;fill:#ffffff;fill-opacity:1;stroke:#ffffff;stroke-width:3.0874;stroke-dasharray:none;stroke-opacity:1" /><path
         id="Selection-0"
         fill="none"
         stroke="#000000"
         stroke-width="1"
         d="m 421.62484,34.946711 c 0,0 30.47184,0.604773 30.47184,0.604773 0,0 12.18874,0.948869 12.18874,0.948869 30.6953,2.200124 61.11636,8.362557 90.3998,18.164058 19.82701,6.642081 39.20711,14.30602 57.8965,23.898979 101.03448,51.85412 178.39233,147.66899 208.65087,259.37482 7.34372,27.10011 11.97544,54.32534 13.88501,82.37432 0,0 0.92431,10.42713 0.92431,10.42713 0,0 0,38.58038 0,38.58038 0,0 -1.85878,22.93968 -1.85878,22.93968 -3.23002,33.11656 -9.47674,64.42923 -20.17236,95.92958 -40.41582,118.93183 -133.31432,214.29835 -249.16827,255.7879 -30.68515,10.97976 -61.18746,17.39245 -93.44699,20.70827 0,0 -22.34602,1.90817 -22.34602,1.90817 0,0 -37.58194,0 -37.58194,0 0,0 -21.33029,-1.91859 -21.33029,-1.91859 -35.82473,-3.93103 -69.97351,-11.40728 -103.60427,-24.9834 C 238.24528,820.21377 197.13876,794.85499 158.55125,759.01695 90.80219,696.09966 46.099983,610.62848 31.006263,518.32754 28.96465,505.7837 26.526902,481.86387 26.506588,469.32004 c 0,0 -1.015728,-20.85426 -1.015728,-20.85426 0,0 0.975099,-10.42713 0.975099,-10.42713 0,0 0,-10.42713 0,-10.42713 0,0 1.899411,-21.89697 1.899411,-21.89697 C 32.875203,359.47023 45.541333,314.26863 64.880796,272.2473 113.86937,165.79676 205.56931,86.237765 314.97338,52.109764 c 18.31358,-5.703639 48.10489,-12.34572 67.03806,-14.295593 0,0 26.40893,-2.262687 26.40893,-2.262687 5.22084,-0.06256 7.85158,0.177261 13.20447,-0.604773 z M 378.96425,74.13186 c 0,0 -20.31456,3.430525 -20.31456,3.430525 -15.39844,4.243842 -40.58849,18.727132 -53.83359,28.142825 -61.75627,43.9295 -95.32608,115.05293 -94.46272,191.5672 0,0 1.74706,18.76883 1.74706,18.76883 2.89482,24.15966 6.03342,38.74721 14.91089,61.52006 1.59469,4.08744 8.61337,20.93768 11.40662,22.95011 2.03146,1.44937 7.00853,1.00101 9.51738,1.03229 9.31422,0.1147 21.39123,2.50251 30.47184,4.82776 51.10128,13.05476 91.42569,52.51102 108.00237,103.61438 4.51999,13.92021 5.89122,25.13981 6.86632,39.62309 0.24378,3.59736 1.00557,5.59936 0.74148,9.38441 -2.02129,29.19596 -6.65301,51.36404 -21.01541,77.16075 -20.54818,36.89119 -57.541,64.05386 -97.64195,73.78237 -8.45085,2.05414 -16.76967,2.85703 -25.3932,3.47223 -4.45904,0.32324 -6.04358,1.1157 -11.17301,0.90716 -31.5282,-1.25125 -62.52822,-10.58353 -88.36834,-29.60262 0,0 -29.45612,-26.66216 -29.45612,-26.66216 3.04718,8.17486 9.4158,15.36958 14.95152,21.89697 14.36239,16.95451 34.07768,32.49093 53.10226,43.63753 88.00269,51.5413 201.1548,36.31769 272.20498,-38.42397 6.51082,-6.85062 13.86469,-16.23504 19.43088,-23.9824 1.68611,-2.35653 5.76934,-7.7265 6.2061,-10.42712 0.55865,-3.50352 -4.83486,-12.02248 -6.57176,-15.6407 -4.93644,-10.27072 -8.48133,-21.19835 -11.05112,-32.3241 -8.71495,-37.72535 -3.56521,-77.76552 15.22576,-111.57027 9.77131,-17.56972 22.43744,-32.81418 37.71399,-45.55613 55.62127,-46.37987 135.79269,-45.38929 190.95689,1.19912 13.92563,11.7618 25.92138,26.35978 35.0934,42.27158 13.84438,24.0241 20.70054,51.51002 21.74674,79.24618 0.27425,7.20514 -2.28538,27.96556 -3.81913,35.45224 -1.03605,5.01544 -4.1848,11.88692 -3.25033,16.6834 17.14549,-30.91643 20.71069,-65.13827 20.31456,-100.10043 -0.22346,-19.15464 -5.12943,-43.27259 -10.82766,-61.52006 -22.20382,-71.1443 -74.93027,-125.8763 -144.57875,-148.08608 -17.62288,-5.63065 -30.53278,-7.72651 -48.75495,-9.54083 -4.3981,-0.43794 -6.40924,-1.05314 -11.173,-0.84459 -7.29293,0.31281 -8.73527,5.8809 -12.62551,11.44898 -6.64286,9.49912 -14.49444,18.38303 -22.96561,26.20338 -21.87878,20.20777 -47.23136,32.44922 -76.13898,37.48552 -5.63729,0.98015 -8.2985,1.92902 -14.22019,2.00201 0,0 -18.28311,0 -18.28311,0 -21.26935,-0.0313 -48.67369,-9.46783 -67.03805,-20.25991 -43.85915,-25.77586 -72.59409,-71.96804 -76.27103,-123.63446 0,0 -0.92431,-10.42713 -0.92431,-10.42713 -0.20315,-18.96695 4.35747,-43.03276 11.60977,-60.47734 11.67072,-28.11154 30.00461,-51.52044 54.41256,-69.111007 6.59207,-4.75477 13.08257,-8.498118 20.31456,-12.105904 4.50983,-2.25226 9.54784,-3.826757 13.20446,-7.413689 z M 120.96931,657.00835 c 0,0 -1.01573,0 -1.01573,0 0,0 1.01573,1.04272 1.01573,1.04272 z"
         style="display:inline;fill:#000000;fill-opacity:1;stroke:#ffffff;stroke-width:3.0874;stroke-dasharray:none;stroke-opacity:1" /></g><g
       id="g9"
       transform="matrix(0.76891153,0,0,0.76891153,14.99989,15)"
       style="display:inline"><circle
         style="display:inline;fill:#43c800;fill-opacity:1;stroke:#329600;stroke-width:15;stroke-dasharray:none;stroke-opacity:1"
         id="circle1"
         cx="243.45753"
         cy="243.45798"
         r="235.95798" /><path
         id="path1"
         fill="none"
         stroke="#000000"
         stroke-width="0.152017"
         d="m 191.07137,82.661434 c 9.1253,-1.10591 28.23469,0.2533 37.68746,1.421 36.98314,4.553382 71.06867,17.663686 101.32366,39.553296 6.0609,4.39276 15.76078,12.27623 21.00614,17.4598 2.82347,2.79258 6.11648,5.6593 7.82787,9.26741 1.51985,3.20035 1.4766,5.22064 1.43955,8.64959 -0.12358,10.44128 -7.94528,16.29827 -17.91701,16.05733 -8.68665,-0.21007 -11.95496,-5.70255 -17.91699,-10.85523 -10.13236,-8.74225 -19.22679,-15.8967 -30.89136,-22.59395 -23.62572,-13.56131 -50.00694,-22.15528 -77.22841,-24.05819 0,0 -7.41393,-0.56222 -7.41393,-0.56222 0,0 -14.82785,0 -14.82785,0 0,0 -6.17827,0.56222 -6.17827,0.56222 -29.52596,2.06355 -58.44645,11.99202 -83.40667,27.82694 -7.074134,4.4916 -16.063516,11.15179 -22.241789,16.75547 0,0 -5.56045,4.95499 -5.56045,4.95499 -5.863182,5.4554 -8.167682,8.1615 -16.681341,7.96997 -10.638985,-0.24713 -16.180892,-7.8217 -16.063507,-17.91082 0.0865,-7.22858 3.194166,-9.99645 8.031758,-14.82785 C 58.380605,136.017 65.386764,130.48744 72.448526,125.0382 97.229585,105.91026 129.57903,92.503416 160.18,86.386934 c 0,0 23.47744,-3.26213 23.47744,-3.26213 z m 7.41392,65.489686 c 5.04766,-0.61165 19.83844,0.74756 25.33092,1.51368 28.16056,3.91084 54.98045,15.8349 76.61057,34.32647 6.06708,5.18976 13.36978,10.79963 13.58603,19.50482 0.20388,8.60015 -3.70079,15.25416 -12.35037,17.61425 -1.7608,0.4819 -3.73785,0.86495 -5.56045,0.72286 -8.13678,-0.64872 -10.94789,-4.47925 -16.68133,-9.51454 -4.89319,-4.2939 -9.31683,-7.77227 -14.82785,-11.26299 -17.30533,-10.96026 -36.40239,-17.08293 -56.84012,-17.97259 0,0 -6.17825,-0.53134 -6.17825,-0.53134 0,0 -4.3248,0.58075 -4.3248,0.58075 0,0 -5.56045,0 -5.56045,0 -18.17648,1.81642 -35.80926,7.88967 -51.27966,17.53394 -5.47394,3.41659 -10.60192,7.40158 -15.44568,11.65223 -5.70873,5.01676 -10.2065,10.02116 -18.53482,9.39097 -10.416573,-0.77847 -16.304464,-8.00703 -16.057332,-18.21354 0.197705,-7.9082 5.146504,-11.87465 10.496892,-16.72459 0,0 11.12089,-9.14384 11.12089,-9.14384 18.03437,-13.5057 39.65832,-22.74222 61.78273,-26.88785 0,0 17.29916,-2.23035 17.29916,-2.23035 3.04588,-0.0309 4.28773,0.0865 7.41392,-0.35834 z m -1.23565,64.74211 c 0,0 5.56046,0 5.56046,0 20.03612,-0.0432 42.07403,7.85877 56.84009,21.54982 3.76257,3.49074 6.52425,6.02381 8.00705,11.06529 3.19416,10.87377 -3.812,20.36358 -14.80315,21.96993 -9.79873,1.42718 -15.62484,-6.91349 -22.8596,-11.76342 -8.35303,-5.60369 -19.0229,-8.46424 -29.03789,-8.35302 -8.70519,0.10502 -19.35652,3.5216 -26.56656,8.35302 -9.73078,6.52425 -16.13148,16.76164 -29.65572,9.67516 -7.93289,-4.16414 -10.81197,-14.33977 -7.19768,-22.35299 1.36539,-3.02116 2.97175,-4.76962 5.36891,-6.96909 10.18798,-9.36008 22.37153,-16.53924 35.80928,-20.12262 3.97263,-1.05649 8.27889,-1.89674 12.35654,-2.39099 z m 1.85348,63.77832 c 7.04941,-0.90203 14.69811,1.35303 19.65927,6.57986 9.496,10.0088 7.99467,27.19676 -3.59576,34.93812 -3.16327,2.11296 -6.15355,3.07059 -9.88524,3.65754 -21.54363,3.39805 -34.28323,-23.1747 -19.65925,-38.59566 3.89849,-4.10856 8.08116,-5.57281 13.48098,-6.57986 z"
         style="display:inline;fill:#ffffff;fill-opacity:1;stroke:#ffffff;stroke-width:0.3;stroke-dasharray:none;stroke-opacity:1"
         transform="matrix(1.3005397,0,0,1.3005397,-19.507953,-19.508096)" /></g></g></svg>
