<?xml version="1.0" encoding="UTF-8" standalone="no"?>
<svg
   width="256"
   height="256"
   viewBox="0 0 799.9991 800"
   version="1.1"
   id="svg1"
   xml:space="preserve"
   xmlns="http://www.w3.org/2000/svg"
   xmlns:svg="http://www.w3.org/2000/svg"><defs
     id="defs1"><linearGradient
       id="swatch35"><stop
         style="stop-color:#000000;stop-opacity:1;"
         offset="0"
         id="stop35" /></linearGradient></defs><g
     id="layer1"
     style="display:inline"><g
       id="g9"
       transform="matrix(0.76891153,0,0,0.76891153,14.99989,15)"
       style="display:inline"><circle
         style="display:inline;fill:#43c800;fill-opacity:1;stroke:#329600;stroke-width:15;stroke-dasharray:none;stroke-opacity:1"
         id="circle1"
         cx="243.45753"
         cy="243.45798"
         r="235.95798" /><path
         id="path1"
         fill="none"
         stroke="#000000"
         stroke-width="0.152017"
         d="m 191.07137,82.661434 c 9.1253,-1.10591 28.23469,0.2533 37.68746,1.421 36.98314,4.553382 71.06867,17.663686 101.32366,39.553296 6.0609,4.39276 15.76078,12.27623 21.00614,17.4598 2.82347,2.79258 6.11648,5.6593 7.82787,9.26741 1.51985,3.20035 1.4766,5.22064 1.43955,8.64959 -0.12358,10.44128 -7.94528,16.29827 -17.91701,16.05733 -8.68665,-0.21007 -11.95496,-5.70255 -17.91699,-10.85523 -10.13236,-8.74225 -19.22679,-15.8967 -30.89136,-22.59395 -23.62572,-13.56131 -50.00694,-22.15528 -77.22841,-24.05819 0,0 -7.41393,-0.56222 -7.41393,-0.56222 0,0 -14.82785,0 -14.82785,0 0,0 -6.17827,0.56222 -6.17827,0.56222 -29.52596,2.06355 -58.44645,11.99202 -83.40667,27.82694 -7.074134,4.4916 -16.063516,11.15179 -22.241789,16.75547 0,0 -5.56045,4.95499 -5.56045,4.95499 -5.863182,5.4554 -8.167682,8.1615 -16.681341,7.96997 -10.638985,-0.24713 -16.180892,-7.8217 -16.063507,-17.91082 0.0865,-7.22858 3.194166,-9.99645 8.031758,-14.82785 C 58.380605,136.017 65.386764,130.48744 72.448526,125.0382 97.229585,105.91026 129.57903,92.503416 160.18,86.386934 c 0,0 23.47744,-3.26213 23.47744,-3.26213 z m 7.41392,65.489686 c 5.04766,-0.61165 19.83844,0.74756 25.33092,1.51368 28.16056,3.91084 54.98045,15.8349 76.61057,34.32647 6.06708,5.18976 13.36978,10.79963 13.58603,19.50482 0.20388,8.60015 -3.70079,15.25416 -12.35037,17.61425 -1.7608,0.4819 -3.73785,0.86495 -5.56045,0.72286 -8.13678,-0.64872 -10.94789,-4.47925 -16.68133,-9.51454 -4.89319,-4.2939 -9.31683,-7.77227 -14.82785,-11.26299 -17.30533,-10.96026 -36.40239,-17.08293 -56.84012,-17.97259 0,0 -6.17825,-0.53134 -6.17825,-0.53134 0,0 -4.3248,0.58075 -4.3248,0.58075 0,0 -5.56045,0 -5.56045,0 -18.17648,1.81642 -35.80926,7.88967 -51.27966,17.53394 -5.47394,3.41659 -10.60192,7.40158 -15.44568,11.65223 -5.70873,5.01676 -10.2065,10.02116 -18.53482,9.39097 -10.416573,-0.77847 -16.304464,-8.00703 -16.057332,-18.21354 0.197705,-7.9082 5.146504,-11.87465 10.496892,-16.72459 0,0 11.12089,-9.14384 11.12089,-9.14384 18.03437,-13.5057 39.65832,-22.74222 61.78273,-26.88785 0,0 17.29916,-2.23035 17.29916,-2.23035 3.04588,-0.0309 4.28773,0.0865 7.41392,-0.35834 z m -1.23565,64.74211 c 0,0 5.56046,0 5.56046,0 20.03612,-0.0432 42.07403,7.85877 56.84009,21.54982 3.76257,3.49074 6.52425,6.02381 8.00705,11.06529 3.19416,10.87377 -3.812,20.36358 -14.80315,21.96993 -9.79873,1.42718 -15.62484,-6.91349 -22.8596,-11.76342 -8.35303,-5.60369 -19.0229,-8.46424 -29.03789,-8.35302 -8.70519,0.10502 -19.35652,3.5216 -26.56656,8.35302 -9.73078,6.52425 -16.13148,16.76164 -29.65572,9.67516 -7.93289,-4.16414 -10.81197,-14.33977 -7.19768,-22.35299 1.36539,-3.02116 2.97175,-4.76962 5.36891,-6.96909 10.18798,-9.36008 22.37153,-16.53924 35.80928,-20.12262 3.97263,-1.05649 8.27889,-1.89674 12.35654,-2.39099 z m 1.85348,63.77832 c 7.04941,-0.90203 14.69811,1.35303 19.65927,6.57986 9.496,10.0088 7.99467,27.19676 -3.59576,34.93812 -3.16327,2.11296 -6.15355,3.07059 -9.88524,3.65754 -21.54363,3.39805 -34.28323,-23.1747 -19.65925,-38.59566 3.89849,-4.10856 8.08116,-5.57281 13.48098,-6.57986 z"
         style="display:inline;fill:#ffffff;fill-opacity:1;stroke:#ffffff;stroke-width:0.3;stroke-dasharray:none;stroke-opacity:1"
         transform="matrix(1.3005397,0,0,1.3005397,-19.507953,-19.508096)" /></g></g></svg>
