<?xml version="1.0" encoding="UTF-8" standalone="no"?>
<svg
   width="256"
   height="256"
   viewBox="0 0 799.9991 800"
   version="1.1"
   id="svg1"
   xml:space="preserve"
   xmlns="http://www.w3.org/2000/svg"
   xmlns:svg="http://www.w3.org/2000/svg"><defs
     id="defs1"><linearGradient
       id="swatch35"><stop
         style="stop-color:#000000;stop-opacity:1;"
         offset="0"
         id="stop35" /></linearGradient></defs><g
     id="layer1"
     style="display:inline"><g
       id="g41"
       style="display:inline"><g
         id="g42"
         style="display:inline"
         transform="matrix(2.0282174,0,0,2.0282174,-10.10032,-10.100783)"><circle
           style="display:inline;fill:#43c800;fill-opacity:1;stroke:#329600;stroke-width:15;stroke-dasharray:none;stroke-opacity:1"
           id="circle41"
           cx="243.45753"
           cy="243.45798"
           r="235.95798"
           transform="matrix(0.76891153,0,0,0.76891153,14.99989,15)" /><path
           id="Selection-3"
           fill="none"
           stroke="#000000"
           stroke-width="0.026193"
           d="m 179.03272,243.77812 c 0.20218,-0.52795 1.08538,-1.75165 1.44635,-2.29188 0,0 3.02857,-4.50193 3.02857,-4.50193 0,0 9.82156,-14.56986 9.82156,-14.56986 0,0 13.75215,-20.4633 13.75215,-20.4633 0,0 15.98838,-23.73742 15.98838,-23.73742 0,0 19.01695,-28.23934 19.01695,-28.23934 0,0 8.70344,-12.93281 8.70344,-12.93281 0,0 2.40321,-3.60153 2.40321,-3.60153 0,0 5.67407,-8.43088 5.67407,-8.43088 0,0 10.42235,-15.47025 10.42235,-15.47025 0,0 2.75519,-4.09266 2.75519,-4.09266 0,0 2.87223,-4.17451 2.87223,-4.17451 2.00049,-2.566906 4.38486,-4.855526 7.16871,-6.563806 3.68093,-2.25914 8.25651,-3.862648 12.60539,-3.913396 0,0 1.14594,-0.08185 1.14594,-0.08185 0,0 1.63707,0.08185 1.63707,0.08185 0.95767,0.01146 2.80181,0.325777 3.76524,0.538594 4.62962,1.020712 8.80902,3.276582 12.27798,6.508152 3.34288,3.114506 5.8083,7.097476 7.37087,11.370216 0.89873,2.45723 1.53148,5.24679 1.72219,7.8579 0,0 0.0745,0.81853 0.0745,0.81853 0,0 0.0819,1.39151 0.0819,1.39151 0,0 0,1.30965 0,1.30965 0,0 -0.0819,1.30965 -0.0819,1.30965 0,0 -0.0745,0.90039 -0.0745,0.90039 -0.19071,2.60784 -0.83082,5.40312 -1.73039,7.8579 -1.33257,3.6351 -2.64877,5.45224 -4.74337,8.59458 0,0 -5.18379,7.6942 -5.18379,7.6942 0,0 -14.43315,21.44553 -14.43315,21.44553 0,0 -5.15757,7.6942 -5.15757,7.6942 0,0 -11.45944,17.02546 -11.45944,17.02546 0,0 -35.00534,51.97677 -35.00534,51.97677 0,0 -14.26946,21.19996 -14.26946,21.19996 0,0 -5.61676,8.34903 -5.61676,8.34903 0,0 -5.27053,7.8579 -5.27053,7.8579 0,0 -7.72121,11.45945 -7.72121,11.45945 0,0 -4.41843,6.54825 -4.41843,6.54825 -1.19096,1.72955 -2.06761,3.09732 -3.52869,4.66563 -5.19276,5.57422 -12.19613,8.60114 -19.8011,8.51273 0,0 -0.81853,-0.0851 -0.81853,-0.0851 0,0 -0.73668,0 -0.73668,0 -4.1516,-0.40598 -7.91602,-1.67142 -11.45945,-3.87819 -1.84251,-1.14759 -4.20315,-3.13171 -5.97528,-4.51502 0,0 -10.3135,-8.08465 -10.3135,-8.08465 0,0 -14.3243,-11.23269 -14.3243,-11.23269 0,0 -36.75207,-28.81233 -36.75207,-28.81233 0,0 -8.349031,-6.54825 -8.349031,-6.54825 -2.187119,-1.70665 -4.332493,-3.2815 -6.206928,-5.35484 -3.593355,-3.97397 -5.988379,-8.91872 -7.036914,-14.1606 -0.244746,-1.22289 -0.428095,-2.44086 -0.514858,-3.68339 0,0 -0.07448,-0.81853 -0.07448,-0.81853 0,0 -0.08186,-1.88263 -0.08186,-1.88263 0,0 0.08186,-1.80077 0.08186,-1.80077 0,0 0.07448,-0.81853 0.07448,-0.81853 0.120322,-1.71892 0.418267,-3.40345 0.836539,-5.0749 2.254237,-9.01857 8.535649,-16.57526 17.342227,-19.80437 1.835155,-0.67283 5.102735,-1.45453 7.039385,-1.47745 0,0 1.96447,-0.0819 1.96447,-0.0819 0,0 1.39151,0.0819 1.39151,0.0819 0,0 2.53744,0.29385 2.53744,0.29385 3.5909,0.60244 6.76599,1.88508 9.82239,3.85529 1.51674,0.97814 3.97479,2.99419 5.48416,4.1827 0,0 6.13898,4.81215 6.13898,4.81215 0,0 29.30344,22.97045 29.30344,22.97045 0,0 10.1498,7.95694 10.1498,7.95694 z"
           style="display:inline;fill:#000000;fill-opacity:1" /></g></g></g></svg>
