<?xml version="1.0" encoding="UTF-8" standalone="no"?>
<svg
   width="256"
   height="256"
   viewBox="0 0 799.9991 800"
   version="1.1"
   id="svg1"
   xml:space="preserve"
   xmlns="http://www.w3.org/2000/svg"
   xmlns:svg="http://www.w3.org/2000/svg"><defs
     id="defs1"><linearGradient
       id="swatch41"><stop
         style="stop-color:#000000;stop-opacity:1;"
         offset="0"
         id="stop41" /></linearGradient><linearGradient
       id="swatch1"><stop
         style="stop-color:#bae9ff;stop-opacity:1;"
         offset="0"
         id="stop1" /></linearGradient><linearGradient
       id="swatch35"><stop
         style="stop-color:#5c73b3;stop-opacity:1;"
         offset="0"
         id="stop35" /></linearGradient></defs><g
     id="g27"
     style="display:inline"
     transform="translate(60.506669)"><circle
       style="display:inline;fill:#5c73b3;fill-opacity:1;stroke:#303b5c;stroke-width:61.0065;stroke-dasharray:none;stroke-opacity:1;paint-order:stroke fill markers"
       id="circle26"
       cx="337.26453"
       cy="400"
       r="369.49677" /><path
       id="path27"
       fill="none"
       stroke="#000000"
       stroke-width="0.15008"
       d="m 199.49611,169.96682 c 0,0 22.04304,0 22.04304,0 0,0 25.32604,0 25.32604,0 21.00655,0.0327 39.83225,19.36036 39.89321,40.2684 0,0 0,305.78858 0,305.78858 0,0 0,45.96207 0,45.96207 0,0 0,26.26405 0,26.26405 0.86298,21.14727 -18.11282,41.70824 -39.4242,41.74108 0,0 -45.49309,0 -45.49309,0 -16.18053,-0.0237 -31.05723,-11.88916 -36.60553,-26.73306 -1.73061,-4.62903 -2.78116,-8.62021 -2.79053,-13.601 0,0 0,-319.38962 0,-319.38962 0,0 0,-59.5631 0,-59.5631 0.008,-6.53786 1.6321,-12.02984 4.57743,-17.82202 6.80521,-13.39468 17.83141,-20.65948 32.47363,-22.91538 z m 228.87241,0 c 0,0 23.45006,0 23.45006,0 0,0 24.38803,0 24.38803,0 22.5261,-0.0327 40.30125,20.1858 40.33406,42.14442 0,0 0,306.25756 0,306.25756 0,0 0,69.88112 0,69.88112 -0.0844,17.40462 -11.27946,33.57109 -27.67101,39.54147 -6.92717,2.51853 -9.84905,2.209 -16.88404,2.24182 0,0 -27.20206,0 -27.20206,0 0,0 -13.60101,0 -13.60101,0 -11.45772,-0.36113 -22.47455,-6.18612 -29.64087,-15.05023 -3.34867,-4.14596 -4.53994,-6.42532 -6.60353,-11.25601 -1.87132,-4.38049 -3.12825,-10.70733 -3.15168,-15.47705 0,0 0,-105.99417 0,-105.99417 0,0 0,-211.98843 0,-211.98843 0,0 0,-57.6871 0,-57.6871 0.0327,-21.87418 15.13465,-38.9646 36.58205,-42.6134 z"
       style="display:inline;fill:#000000;fill-opacity:1" /></g></svg>
