<?xml version="1.0" encoding="UTF-8" standalone="no"?>
<!-- Created with Inkscape (http://www.inkscape.org/) -->

<svg
   width="256"
   height="256"
   viewBox="0 0 67.733334 67.733334"
   version="1.1"
   id="svg1"
   xmlns="http://www.w3.org/2000/svg"
   xmlns:svg="http://www.w3.org/2000/svg">
  <defs
     id="defs1" />
  <path
     id="Selection"
     fill="none"
     stroke="#000000"
     stroke-width="0.463778"
     d="m 22.270746,4.9174769 c 0,0 7.607908,0 7.607908,0 0,0 14.602279,0 14.602279,0 3.715602,-0.012297 6.988229,3.2615816 6.994364,6.9759601 0,0 0,34.726423 0,34.726423 0,0.300635 0.01595,0.701893 -0.0908,0.981665 -0.229463,0.601272 -1.473722,1.595207 -1.995231,2.076225 0,0 -6.380834,5.674026 -6.380834,5.674026 0,0 -6.380822,5.696115 -6.380822,5.696115 -0.90559,0.784107 -1.663925,1.83694 -2.944998,1.764548 -0.941175,-0.054 -1.773133,-1.071246 -2.454167,-1.661477 0,0 -5.399161,-4.817521 -5.399161,-4.817521 0,0 -6.994368,-6.226213 -6.994368,-6.226213 -0.56446,-0.48838 -2.256606,-1.903207 -2.48607,-2.505703 -0.106756,-0.279772 -0.09081,-0.68103 -0.09081,-0.981665 0,0 0,-24.173514 0,-24.173514 0,0 0,-10.552909 0,-10.552909 0.0061,-3.5499451 2.663996,-6.1943119 6.012702,-6.9759601 z m 1.840624,3.4296928 c -2.969539,0.5853219 -5.36235,3.0296693 -5.399162,6.1231403 0,0 0,9.203114 0,9.203114 0,0 0,20.860396 0,20.860396 0,0.300632 -0.01595,0.70189 0.09081,0.981667 0.229465,0.602495 1.58539,1.625885 2.117944,2.106901 0,0 6.258118,5.675251 6.258118,5.675251 0,0 4.417496,3.926661 4.417496,3.926661 0.587768,0.508018 1.276165,1.330157 2.086041,1.407465 1.061423,0.101846 1.720364,-0.774289 2.454163,-1.407465 0,0 5.153744,-4.583148 5.153744,-4.583148 0,0 1.717913,-1.501952 1.717913,-1.501952 0,0 3.926667,-3.626025 3.926667,-3.626025 0.512917,-0.451565 1.773131,-1.416057 1.995231,-1.997688 0.106756,-0.279777 0.09081,-0.681035 0.09081,-0.981667 0,0 0,-22.823724 0,-22.823724 0,0 0,-5.399162 0,-5.399162 0,-1.062653 0.07853,-2.428394 -0.218427,-3.435829 C 48.252984,11.016075 46.832022,9.6061577 45.094475,8.8367764 44.18153,8.4330657 43.753274,8.336127 42.76302,8.3471697 c 0,0 -12.148115,0 -12.148115,0 z"
     style="fill:#000000;fill-opacity:1" />
  <path
     id="path1"
     fill="none"
     stroke="#000000"
     stroke-width="0.463778"
     d="m 24.107077,8.7207849 c -2.969539,0.5853219 -5.36235,3.0296691 -5.399162,6.1231401 v 9.203114 20.860396 c 0,0.300632 -0.01595,0.70189 0.09081,0.981667 0.229465,0.602495 1.58539,1.625885 2.117944,2.106901 l 6.258118,5.675251 4.417496,3.926661 c 0.587768,0.508018 1.276165,1.330157 2.086041,1.407465 1.061423,0.101846 1.720364,-0.774289 2.454163,-1.407465 l 5.153744,-4.583148 1.717913,-1.501952 3.926667,-3.626025 c 0.512917,-0.451565 1.773131,-1.416057 1.995231,-1.997688 0.106756,-0.279777 0.09081,-0.681035 0.09081,-0.981667 V 22.083711 16.684549 c 0,-1.062653 0.07853,-2.428394 -0.218427,-3.435829 C 48.248691,11.38969 46.827729,9.9797729 45.090182,9.2103916 44.177237,8.8066809 43.748981,8.7097422 42.758727,8.7207849 H 30.610616 Z"
     style="fill:#ff2525;fill-opacity:1" />
</svg>
