<?xml version="1.0" encoding="UTF-8" standalone="no"?>
<svg
   width="256"
   height="256"
   viewBox="0 0 799.9991 800"
   version="1.1"
   id="svg1"
   xml:space="preserve"
   xmlns="http://www.w3.org/2000/svg"
   xmlns:svg="http://www.w3.org/2000/svg"><defs
     id="defs1"><linearGradient
       id="swatch35"><stop
         style="stop-color:#000000;stop-opacity:1;"
         offset="0"
         id="stop35" /></linearGradient></defs><g
     id="layer2"
     style="display:inline"><g
       id="g36"
       transform="matrix(0.4432993,0,0,0.4432993,217.94966,754.58856)"
       style="display:inline;stroke:none"><path
         id="Selection #1-6"
         fill="none"
         stroke="#000000"
         stroke-width="0.910796"
         d="m 396.54053,-1405.4234 c 29.71475,-7.2864 44.99907,4.4401 45.42601,34.8949 0,0 0,133.7733 0,133.7733 -0.0284,9.8764 0.76848,19.696 -4.95247,28.3486 -11.72651,17.7889 -37.25729,19.1552 -50.74848,2.647 -7.31483,-8.9088 -6.85944,-17.3336 -6.91636,-28.1494 0,0 0,-136.6195 0,-136.6195 0.2277,-16.7644 1.87852,-26.0432 17.1913,-34.8949 z m 2.73239,333.0102 c 29.68629,-6.9164 42.5513,9.9049 42.69362,37.7411 0,0 0,130.92713 0,130.92713 -0.0284,12.12499 0.65463,23.48149 -7.54255,33.55718 -15.68278,19.24059 -54.79014,17.56131 -55.07476,-27.8647 0,0 0,-136.61961 0,-136.61961 0.11385,-19.4967 1.56543,-27.9216 19.92369,-37.7411 z m -2.73239,335.85643 c 29.71475,-7.28637 44.99907,4.44014 45.42601,34.89492 0,0 0,133.77333 0,133.77333 -0.0284,9.87651 0.76848,19.69599 -4.95247,28.34856 -11.72651,17.78906 -37.25729,19.15525 -50.74848,2.64705 -7.31483,-8.90878 -6.85944,-17.33365 -6.91636,-28.14937 0,0 0,-136.61957 0,-136.61957 0.2277,-16.76441 1.87852,-26.04306 17.1913,-34.89492 z m 2.73239,333.01021 c 29.97092,-7.17252 42.5513,9.6203 42.69362,37.74116 0,0 0,130.92709 0,130.92709 -0.0284,24.10771 -3.95628,45.1699 -34.1549,42.38058 -26.18542,-2.41935 -28.43395,-21.00526 -28.46241,-42.38058 0,0 0,-130.92709 0,-130.92709 0.11385,-19.49671 1.56543,-27.92158 19.92369,-37.74116 z"
         style="display:inline;fill:#bae9ff;fill-opacity:1;stroke:none" /><path
         id="Selection-15"
         fill="none"
         stroke="#000000"
         stroke-width="1.05961"
         d="m 235.07403,-306.49521 c 16.75527,0 45.99372,-3.37746 58.84149,8.04648 17.21869,15.29813 13.57645,46.55664 -5.92715,58.67593 -11.02653,6.85427 -23.90748,6.09273 -36.35772,6.12582 0,0 -536.4278,0 -536.4278,0 -75.33169,-0.13251 -119.07374,-43.87444 -119.2062,-119.20617 0,0 0,-781.46255 0,-781.46255 0,0 0,-82.7821 0,-82.7821 0,0 0,-39.7353 0,-39.7353 0.56292,-46.6229 24.73528,-87.0537 69.53695,-103.61 15.7286,-5.8279 23.44387,-5.6292 39.73538,-5.6624 0,0 552.98408,0 552.98408,0 11.05972,0.033 23.17903,-0.894 32.74866,5.7617 17.41734,12.0862 18.2783,42.0864 3.17882,56.2256 -15.0663,14.1723 -39.7686,10.8609 -59.10651,10.8609 z m 350.99608,-986.76209 c -19.93409,0 -43.2122,3.2782 -59.10651,-11.2252 -15.56291,-14.1723 -13.67554,-43.0798 3.44384,-55.3646 9.86759,-7.0862 20.96049,-6.2252 32.48363,-6.2584 0,0 552.98423,0 552.98423,0 73.5435,0.099 109.173,49.4044 109.2725,119.2062 0,0 0,778.15128 0,778.15128 0,0 0,79.47076 0,79.47076 0,48.1792 4.801,88.80857 -33.2455,125.53075 -11.1258,10.72858 -24.7021,19.73527 -39.6029,24.20545 -15.5629,4.63578 -33.5101,5.86099 -49.6691,5.89408 0,0 -533.11658,0 -533.11658,0 -16.09295,-0.0329 -29.76849,0.43053 -42.55012,-11.22522 -15.56291,-14.17225 -13.67554,-43.07981 3.44384,-55.36461 9.86759,-7.08615 20.96049,-6.22521 32.48363,-6.2584 0,0 23.17904,0 23.17904,0 z m -705.30317,0 c 0,0 -168.87536,0 -168.87536,0 -12.68224,0.1987 -22.51672,0.5299 -31.68899,10.6955 -11.42394,12.616 -11.3246,32.9141 -11.35774,48.9076 0,0 0,79.4708 0,79.4708 0,0 211.92209,0 211.92209,0 z m 281.45891,0 c 0,0 -208.610682,0 -208.610682,0 0,0 0,139.0739 0,139.0739 0,0 208.610682,0 208.610682,0 z m 705.30324,0 c 0,0 -208.61081,0 -208.61081,0 0,0 0,139.0739 0,139.0739 0,0 208.61081,0 208.61081,0 z m 284.77031,139.0739 c 0,0 0,-86.0933 0,-86.0933 -0.065,-13.8081 -0.265,-27.7154 -8.9405,-39.3712 -10.2649,-13.7749 -21.9208,-13.5431 -37.4176,-13.6094 0,0 -165.56403,0 -165.56403,0 0,0 0,139.0739 0,139.0739 z m -1480.14324,69.5369 c 0,0 -3.31131,56.2918 -3.31131,56.2918 0,0 0,115.89484 0,115.89484 0,0 0,394.04262 0,394.04262 0,0 493.381,0 493.381,0 0,0 0,-562.91796 0,-562.91796 0,0 -331.12813,0 -331.12813,0 0,0 -99.33846,0 -99.33846,0 z m 1480.14324,3.3113 c 0,0 -493.38112,0 -493.38112,0 0,0 0,562.91796 0,562.91796 0,0 493.38112,0 493.38112,0 z m -1271.53246,635.76616 c 0,0 -211.92209,0 -211.92209,0 0,0 0,82.78204 0,82.78204 0.1657,12.28492 1.8212,32.11943 9.43718,42.15268 9.27161,12.18553 29.4042,13.94047 43.54338,14.13911 0,0 158.94153,0 158.94153,0 z m 281.45891,0 c 0,0 -208.610682,0 -208.610682,0 0,0 0,139.07383 0,139.07383 0,0 208.610682,0 208.610682,0 z m 705.30324,0 c 0,0 -208.61081,0 -208.61081,0 0,0 0,139.07383 0,139.07383 0,0 208.61081,0 208.61081,0 z m 284.77031,0 c 0,0 -211.92213,0 -211.92213,0 0,0 0,139.07383 0,139.07383 0,0 162.25303,0 162.25303,0 14.8012,-0.19864 30.6955,-1.42378 40.7286,-13.9736 9.4042,-11.82123 8.9073,-28.07967 8.9405,-42.31819 z"
         style="display:inline;fill:#bae9ff;fill-opacity:1;stroke:none" /></g></g></svg>
