<?xml version="1.0" encoding="UTF-8" standalone="no"?>
<svg
   width="256"
   height="256"
   viewBox="0 0 799.9991 800"
   version="1.1"
   id="svg1"
   xml:space="preserve"
   xmlns="http://www.w3.org/2000/svg"
   xmlns:svg="http://www.w3.org/2000/svg"><defs
     id="defs1"><linearGradient
       id="swatch1"
       gradientTransform="matrix(0.96583526,0,0,0.96583526,13.665879,13.665894)"><stop
         style="stop-color:#bae9ff;stop-opacity:1;"
         offset="0"
         id="stop1" /></linearGradient><linearGradient
       id="swatch35"><stop
         style="stop-color:#5c73b3;stop-opacity:1;"
         offset="0"
         id="stop35" /></linearGradient></defs><g
     id="g54"
     style="display:inline;fill:url(#swatch35)"><path
       style="display:inline;fill:url(#swatch35);stroke-width:0.571636"
       d="M 359.86395,798.02972 C 316.57736,793.67151 265.3198,778.80959 225.35115,759.02828 143.62389,718.57976 82.350629,657.6308 42.074553,576.72162 12.331507,516.97196 -1.426182,453.61215 0.20749783,383.90691 0.95714188,351.92162 3.1328474,344.86129 16.292662,331.70896 c 12.255257,-12.24834 22.695397,-16.48068 40.782603,-16.5331 13.080929,-0.0377 16.600495,0.65155 25.409698,4.97741 11.301996,5.54996 20.518777,15.16483 26.632717,27.78319 3.63412,7.50021 4.13259,11.9907 5.28181,47.58182 0.92742,28.72285 2.29729,44.47577 5.0899,58.53106 19.96092,100.46427 91.74143,182.61298 189.05636,216.3643 31.59743,10.9588 53.54073,14.41544 91.51139,14.41544 26.97787,0 36.65777,-0.72525 52.70258,-3.94868 38.96015,-7.82715 73.20315,-21.92303 104.87586,-43.17138 64.37281,-43.18594 107.95875,-108.47958 123.2409,-184.62026 5.7721,-28.75846 5.7721,-77.45074 0,-106.2092 -15.30694,-76.26419 -58.68565,-141.24194 -123.2409,-184.60474 -43.27086,-29.06577 -92.29181,-45.14013 -145.07389,-47.5709 -43.36371,-1.99706 -82.21018,5.47902 -127.3151,24.50206 l -13.88105,5.8543 20.44492,20.88531 c 16.30073,16.65182 20.69633,22.22545 21.68526,27.49685 2.55613,13.62519 -5.35698,28.52106 -17.61052,33.15075 -3.31943,1.25417 -36.10953,1.88668 -96.46365,1.86079 -86.69965,-0.0372 -91.83117,-0.21911 -99.08724,-3.51237 -5.841951,-2.65148 -8.474109,-5.28363 -11.125587,-11.12559 C 85.915468,206.55996 85.733516,201.42843 85.69636,114.72879 85.670636,54.37467 86.30298,21.584573 87.557094,18.265138 92.20467,5.9643211 107.07762,-1.9024256 120.81399,0.67451162 126.42912,1.7279233 132.54654,6.8980321 158.08589,32.174996 l 30.55425,30.240198 16.83693,-10.167298 C 314.41428,-13.535856 457.30652,-17.47889 576.79461,42.001541 657.24879,82.051135 717.97917,142.78196 758.03836,223.24671 c 47.21443,94.83695 54.76203,201.56548 21.36572,302.12551 -8.5833,25.84528 -25.24559,61.9545 -38.18708,82.75602 -24.59839,39.53828 -62.66875,81.86999 -97.32759,108.22182 -82.50362,62.72917 -183.57012,91.79374 -284.02546,81.67966 z m -32.45923,-253.1253 c -4.0976,-1.92268 -13.0532,-8.99966 -19.90129,-15.72663 -19.06997,-18.73254 -18.20411,-12.37389 -18.18336,-133.53718 l 0.0172,-101.94508 4.21348,-9.04866 c 5.41842,-11.63623 13.81479,-21.1322 23.92321,-27.05612 10.23401,-5.99756 31.55902,-7.77071 43.70052,-3.63367 10.9222,3.72158 155.91879,94.74972 165.36355,103.81444 4.22835,4.05822 10.13533,12.33895 13.12664,18.40167 4.66441,9.45378 5.43103,12.98661 5.38464,24.81405 -0.0461,11.76462 -0.87239,15.45305 -5.62353,25.10399 -3.47957,7.068 -8.3849,13.58517 -13.07255,17.36797 -10.43072,8.41729 -149.29726,95.17396 -159.71791,99.7835 -12.16076,5.37929 -29.72263,6.12317 -39.23083,1.66172 z"
       id="path54" /></g></svg>
