<?xml version="1.0" encoding="UTF-8" standalone="no"?>
<svg
   width="256"
   height="256"
   viewBox="0 0 799.9991 800"
   version="1.1"
   id="svg1"
   xml:space="preserve"
   xmlns:xlink="http://www.w3.org/1999/xlink"
   xmlns="http://www.w3.org/2000/svg"
   xmlns:svg="http://www.w3.org/2000/svg"><defs
     id="defs1"><linearGradient
       id="swatch41"><stop
         style="stop-color:#000000;stop-opacity:1;"
         offset="0"
         id="stop41" /></linearGradient><linearGradient
       id="swatch1"
       gradientTransform="matrix(0.96583526,0,0,0.96583526,13.665879,13.665894)"><stop
         style="stop-color:#bae9ff;stop-opacity:1;"
         offset="0"
         id="stop1" /></linearGradient><linearGradient
       id="swatch35"
       gradientTransform="matrix(0.12936757,0,0,0.12936757,276.37766,-1864.8251)"><stop
         style="stop-color:#5c73b3;stop-opacity:1;"
         offset="0"
         id="stop35" /></linearGradient><linearGradient
       xlink:href="#swatch41"
       id="linearGradient58"
       gradientUnits="userSpaceOnUse"
       x1="-1868.1945"
       y1="-1288.6947"
       x2="-267.56607"
       y2="-1288.6947"
       gradientTransform="matrix(0.12936757,0,0,0.12936757,-422.25796,-319.31964)" /><linearGradient
       xlink:href="#swatch1"
       id="linearGradient3"
       gradientUnits="userSpaceOnUse"
       x1="0.077534221"
       y1="400"
       x2="799.92157"
       y2="400" /><linearGradient
       xlink:href="#swatch35"
       id="linearGradient4"
       gradientUnits="userSpaceOnUse"
       x1="-1868.1945"
       y1="-1288.6947"
       x2="-267.56607"
       y2="-1288.6947" /><linearGradient
       xlink:href="#swatch41"
       id="linearGradient5"
       gradientUnits="userSpaceOnUse"
       x1="-1868.1945"
       y1="-1288.6947"
       x2="-267.56607"
       y2="-1288.6947" /></defs><g
     id="g58"
     style="display:inline"><path
       style="display:inline;fill:url(#linearGradient3);stroke-width:0.571636"
       d="M 359.86395,798.02972 C 316.57736,793.67151 265.3198,778.80959 225.35115,759.02828 143.62389,718.57976 82.350629,657.6308 42.074553,576.72162 12.331507,516.97196 -1.426182,453.61215 0.20749783,383.90691 0.95714188,351.92162 3.1328474,344.86129 16.292662,331.70896 c 12.255257,-12.24834 22.695397,-16.48068 40.782603,-16.5331 13.080929,-0.0377 16.600495,0.65155 25.409698,4.97741 11.301996,5.54996 20.518777,15.16483 26.632717,27.78319 3.63412,7.50021 4.13259,11.9907 5.28181,47.58182 0.92742,28.72285 2.29729,44.47577 5.0899,58.53106 19.96092,100.46427 91.74143,182.61298 189.05636,216.3643 31.59743,10.9588 53.54073,14.41544 91.51139,14.41544 26.97787,0 36.65777,-0.72525 52.70258,-3.94868 38.96015,-7.82715 73.20315,-21.92303 104.87586,-43.17138 64.37281,-43.18594 107.95875,-108.47958 123.2409,-184.62026 5.7721,-28.75846 5.7721,-77.45074 0,-106.2092 -15.30694,-76.26419 -58.68565,-141.24194 -123.2409,-184.60474 -43.27086,-29.06577 -92.29181,-45.14013 -145.07389,-47.5709 -43.36371,-1.99706 -82.21018,5.47902 -127.3151,24.50206 l -13.88105,5.8543 20.44492,20.88531 c 16.30073,16.65182 20.69633,22.22545 21.68526,27.49685 2.55613,13.62519 -5.35698,28.52106 -17.61052,33.15075 -3.31943,1.25417 -36.10953,1.88668 -96.46365,1.86079 -86.69965,-0.0372 -91.83117,-0.21911 -99.08724,-3.51237 -5.841951,-2.65148 -8.474109,-5.28363 -11.125587,-11.12559 C 85.915468,206.55996 85.733516,201.42843 85.69636,114.72879 85.670636,54.37467 86.30298,21.584573 87.557094,18.265138 92.20467,5.9643211 107.07762,-1.9024256 120.81399,0.67451162 126.42912,1.7279233 132.54654,6.8980321 158.08589,32.174996 l 30.55425,30.240198 16.83693,-10.167298 C 314.41428,-13.535856 457.30652,-17.47889 576.79461,42.001541 657.24879,82.051135 717.97917,142.78196 758.03836,223.24671 c 47.21443,94.83695 54.76203,201.56548 21.36572,302.12551 -8.5833,25.84528 -25.24559,61.9545 -38.18708,82.75602 -24.59839,39.53828 -62.66875,81.86999 -97.32759,108.22182 -82.50362,62.72917 -183.57012,91.79374 -284.02546,81.67966 z m -32.45923,-253.1253 c -4.0976,-1.92268 -13.0532,-8.99966 -19.90129,-15.72663 -19.06997,-18.73254 -18.20411,-12.37389 -18.18336,-133.53718 l 0.0172,-101.94508 4.21348,-9.04866 c 5.41842,-11.63623 13.81479,-21.1322 23.92321,-27.05612 10.23401,-5.99756 31.55902,-7.77071 43.70052,-3.63367 10.9222,3.72158 155.91879,94.74972 165.36355,103.81444 4.22835,4.05822 10.13533,12.33895 13.12664,18.40167 4.66441,9.45378 5.43103,12.98661 5.38464,24.81405 -0.0461,11.76462 -0.87239,15.45305 -5.62353,25.10399 -3.47957,7.068 -8.3849,13.58517 -13.07255,17.36797 -10.43072,8.41729 -149.29726,95.17396 -159.71791,99.7835 -12.16076,5.37929 -29.72263,6.12317 -39.23083,1.66172 z"
       id="path55" /><g
       id="g60"
       style="display:inline;fill:url(#swatch1);stroke:url(#linearGradient5);stroke-opacity:1"
       transform="matrix(0.20388728,0,0,0.20388728,851.45527,429.00303)"><path
         style="fill:url(#swatch1);stroke:url(#linearGradient4);stroke-width:31.25;stroke-dasharray:none;stroke-opacity:1"
         d="m -1155.3802,-491.97035 c -175.9205,-19.714 -341.775,-98.1788 -471.3201,-222.97863 -128.1196,-123.42661 -215.6396,-300.52062 -236.454,-478.45712 -6.0505,-51.7244 -6.0505,-138.5294 0,-190.2539 20.813,-177.9243 108.1315,-354.6327 236.454,-478.5166 130.3583,-125.8492 296.29,-203.7601 475.1031,-223.0781 43.8679,-4.7392 132.0564,-4.0254 178.84388,1.4476 197.95432,23.156 387.61495,125.2913 516.39388,278.0866 99.6436,118.2263 166.05545,270.7669 183.75322,422.0605 6.05053,51.7245 6.05053,138.5295 0,190.2539 -17.69777,151.2936 -84.10962,303.83417 -183.75322,422.06055 -128.77893,152.7952 -318.43956,254.9306 -516.39388,278.0865 -43.42138,5.0793 -142.55858,5.7788 -182.62688,1.2887 z"
         id="path59" /><path
         style="fill:url(#swatch35);stroke:url(#linearGradient58);stroke-width:0.129368"
         d="m -1520.5525,-888.13667 c 14.7875,-2.12032 29.6959,-7.68837 42.5366,-15.88665 12.7173,-8.11958 29.8055,-26.98548 35.9996,-39.74467 2.8047,-5.77732 32.8057,-105.53131 66.6688,-221.67551 33.8632,-116.1442 63.999,-216.0066 66.9684,-221.9164 11.0142,-21.9212 38.0916,-42.4263 63.0284,-47.7303 6.6659,-1.4178 110.0866,-1.9112 324.0687,-1.546 l 314.27848,0.5364 11.33076,5.5642 c 21.66389,10.6383 35.26573,32.8428 35.26573,57.5701 0,10.4357 -9.49798,44.973 -59.36793,215.8788 -38.35794,131.4537 -61.60105,207.87944 -65.67817,215.9561 -12.91543,25.58525 -42.69644,47.91322 -71.02896,53.25306 -7.02332,1.32369 -141.79466,1.92915 -393.59161,1.7682 -235.5425,-0.15054 -378.1264,-0.93078 -370.4788,-2.02733 z m -23.3506,-41.11084 c -15.4914,-5.05244 -26.0854,-14.87225 -29.7678,-27.59259 -1.4868,-5.13514 -1.9501,-107.3109 -1.54,-339.4702 l 0.5868,-332.1239 6.1673,-12.8884 c 11.4132,-23.8513 30.8208,-40.1982 55.2212,-46.5125 17.5917,-4.5522 269.9515,-4.573 287.6686,-0.024 29.6079,7.6028 41.9573,17.147 75.6084,58.4331 19.1507,23.4957 29.2873,34.2489 35.9656,38.1533 l 9.2994,5.4365 168.76543,0.016 c 104.62398,0.01 172.82484,0.7737 179.44608,2.0095 25.65866,4.7887 50.18374,23.6737 61.78656,47.5774 5.64049,11.6204 6.33243,15.0758 7.03343,35.1237 l 0.77743,22.2354 -279.29499,0.6169 c -313.39494,0.6921 -286.48294,-0.6325 -319.94274,15.7475 -21.7294,10.6373 -46.9325,35.0805 -57.8976,56.1519 -5.4433,10.4602 -22.401,65.9057 -68.8308,225.051 -33.8843,116.1443 -63.0567,214.44539 -64.8273,218.44695 -4.5572,10.29825 -17.9039,23.22748 -29.5475,28.62307 -10.9337,5.06668 -28.9324,7.51474 -36.6775,4.9887 z"
         id="path60" /></g></g></svg>
