<?xml version="1.0" encoding="UTF-8" standalone="no"?>
<svg
   width="256"
   height="256"
   viewBox="0 0 799.9991 800"
   version="1.1"
   id="svg1"
   xml:space="preserve"
   xmlns:xlink="http://www.w3.org/1999/xlink"
   xmlns="http://www.w3.org/2000/svg"
   xmlns:svg="http://www.w3.org/2000/svg"><defs
     id="defs1"><linearGradient
       id="swatch41"><stop
         style="stop-color:#000000;stop-opacity:1;"
         offset="0"
         id="stop41" /></linearGradient><linearGradient
       id="swatch1"><stop
         style="stop-color:#bae9ff;stop-opacity:1;"
         offset="0"
         id="stop1" /></linearGradient><linearGradient
       id="swatch35"><stop
         style="stop-color:#5c73b3;stop-opacity:1;"
         offset="0"
         id="stop35" /></linearGradient><linearGradient
       xlink:href="#swatch1"
       id="linearGradient30"
       x1="0.077534221"
       y1="400"
       x2="799.92157"
       y2="400"
       gradientUnits="userSpaceOnUse" /><linearGradient
       xlink:href="#swatch35"
       id="linearGradient48"
       gradientUnits="userSpaceOnUse"
       x1="-1868.1945"
       y1="-1288.6947"
       x2="-267.56607"
       y2="-1288.6947" /><linearGradient
       xlink:href="#swatch41"
       id="linearGradient49"
       gradientUnits="userSpaceOnUse"
       x1="-1868.1945"
       y1="-1288.6947"
       x2="-267.56607"
       y2="-1288.6947" /></defs><g
     id="g52"
     style="display:inline"><path
       style="display:inline;fill:url(#linearGradient30);stroke-width:0.571636"
       d="M 359.86395,798.02972 C 316.57736,793.67151 265.3198,778.80959 225.35115,759.02828 143.62389,718.57976 82.350629,657.6308 42.074553,576.72162 12.331507,516.97196 -1.426182,453.61215 0.20749783,383.90691 0.95714188,351.92162 3.1328474,344.86129 16.292662,331.70896 c 12.255257,-12.24834 22.695397,-16.48068 40.782603,-16.5331 13.080929,-0.0377 16.600495,0.65155 25.409698,4.97741 11.301996,5.54996 20.518777,15.16483 26.632717,27.78319 3.63412,7.50021 4.13259,11.9907 5.28181,47.58182 0.92742,28.72285 2.29729,44.47577 5.0899,58.53106 19.96092,100.46427 91.74143,182.61298 189.05636,216.3643 31.59743,10.9588 53.54073,14.41544 91.51139,14.41544 26.97787,0 36.65777,-0.72525 52.70258,-3.94868 38.96015,-7.82715 73.20315,-21.92303 104.87586,-43.17138 64.37281,-43.18594 107.95875,-108.47958 123.2409,-184.62026 5.7721,-28.75846 5.7721,-77.45074 0,-106.2092 -15.30694,-76.26419 -58.68565,-141.24194 -123.2409,-184.60474 -43.27086,-29.06577 -92.29181,-45.14013 -145.07389,-47.5709 -43.36371,-1.99706 -82.21018,5.47902 -127.3151,24.50206 l -13.88105,5.8543 20.44492,20.88531 c 16.30073,16.65182 20.69633,22.22545 21.68526,27.49685 2.55613,13.62519 -5.35698,28.52106 -17.61052,33.15075 -3.31943,1.25417 -36.10953,1.88668 -96.46365,1.86079 -86.69965,-0.0372 -91.83117,-0.21911 -99.08724,-3.51237 -5.841951,-2.65148 -8.474109,-5.28363 -11.125587,-11.12559 C 85.915468,206.55996 85.733516,201.42843 85.69636,114.72879 85.670636,54.37467 86.30298,21.584573 87.557094,18.265138 92.20467,5.9643211 107.07762,-1.9024256 120.81399,0.67451162 126.42912,1.7279233 132.54654,6.8980321 158.08589,32.174996 l 30.55425,30.240198 16.83693,-10.167298 C 314.41428,-13.535856 457.30652,-17.47889 576.79461,42.001541 657.24879,82.051135 717.97917,142.78196 758.03836,223.24671 c 47.21443,94.83695 54.76203,201.56548 21.36572,302.12551 -8.5833,25.84528 -25.24559,61.9545 -38.18708,82.75602 -24.59839,39.53828 -62.66875,81.86999 -97.32759,108.22182 -82.50362,62.72917 -183.57012,91.79374 -284.02546,81.67966 z m -32.45923,-253.1253 c -4.0976,-1.92268 -13.0532,-8.99966 -19.90129,-15.72663 -19.06997,-18.73254 -18.20411,-12.37389 -18.18336,-133.53718 l 0.0172,-101.94508 4.21348,-9.04866 c 5.41842,-11.63623 13.81479,-21.1322 23.92321,-27.05612 10.23401,-5.99756 31.55902,-7.77071 43.70052,-3.63367 10.9222,3.72158 155.91879,94.74972 165.36355,103.81444 4.22835,4.05822 10.13533,12.33895 13.12664,18.40167 4.66441,9.45378 5.43103,12.98661 5.38464,24.81405 -0.0461,11.76462 -0.87239,15.45305 -5.62353,25.10399 -3.47957,7.068 -8.3849,13.58517 -13.07255,17.36797 -10.43072,8.41729 -149.29726,95.17396 -159.71791,99.7835 -12.16076,5.37929 -29.72263,6.12317 -39.23083,1.66172 z"
       id="path49" /><g
       id="g51"
       style="display:inline;fill:url(#swatch1);stroke:url(#linearGradient49);stroke-opacity:1"
       transform="matrix(0.20388729,0,0,0.20388729,851.45527,429.00302)"><path
         style="fill:url(#swatch1);stroke:url(#linearGradient48);stroke-width:31.25;stroke-dasharray:none;stroke-opacity:1"
         d="m -1155.3802,-491.97035 c -175.9205,-19.714 -341.775,-98.1788 -471.3201,-222.97863 -128.1196,-123.42661 -215.6396,-300.52062 -236.454,-478.45712 -6.0505,-51.7244 -6.0505,-138.5294 0,-190.2539 20.813,-177.9243 108.1315,-354.6327 236.454,-478.5166 130.3583,-125.8492 296.29,-203.7601 475.1031,-223.0781 43.8679,-4.7392 132.0564,-4.0254 178.84388,1.4476 197.95432,23.156 387.61495,125.2913 516.39388,278.0866 99.6436,118.2263 166.05545,270.7669 183.75322,422.0605 6.05053,51.7245 6.05053,138.5295 0,190.2539 -17.69777,151.2936 -84.10962,303.83417 -183.75322,422.06055 -128.77893,152.7952 -318.43956,254.9306 -516.39388,278.0865 -43.42138,5.0793 -142.55858,5.7788 -182.62688,1.2887 z"
         id="path50" /><path
         style="display:inline;fill:url(#swatch35);fill-opacity:1;stroke:none;stroke-opacity:1"
         d="m -1427.2552,-869.23421 c -28.3515,-8.75185 -54.3467,-32.27021 -64.357,-58.22509 -5.3582,-13.89282 -5.9555,-24.39816 -5.9555,-104.7324 v -89.2908 l 8.8004,-13.2983 c 9.3873,-14.1852 28.2923,-25.1179 43.6437,-25.2391 10.3695,-0.082 29.3813,7.4444 37.6052,14.8869 14.8861,13.4718 16.1183,20.2383 17.7632,97.5445 l 1.5625,73.43748 h 320.3125 320.3124 l 1.5625,-73.43748 c 1.6448,-77.3062 2.877,-84.0727 17.7632,-97.5445 8.2239,-7.4425 27.2357,-14.9688 37.6052,-14.8869 15.3514,0.1212 34.2564,11.0539 43.6437,25.2391 l 8.8004,13.2983 v 89.2908 c 0,80.33424 -0.5973,90.83958 -5.9555,104.7324 -7.5566,19.59288 -26.8068,40.56172 -47.044,51.2442 l -15.7505,8.31408 -356.2499,0.53923 c -195.9375,0.29658 -359.7657,-0.54601 -364.0625,-1.87242 z m 332.8125,-203.03109 c -5.1563,-3.2469 -55.9708,-52.812 -112.9212,-110.1446 -110.3387,-111.0793 -113.5302,-115.1668 -109.001,-139.6011 6.0943,-32.8781 36.2961,-52.5959 67.7544,-44.2348 11.4501,3.0432 22.0101,12.0059 68.3402,58.0033 30.1387,29.9222 55.8027,54.404 57.0313,54.404 1.2286,0 2.2569,-93.8672 2.2852,-208.5938 l 0.051,-208.5937 6.9798,-12.2656 c 8.2963,-14.5789 29.2892,-26.7969 46.0424,-26.7969 16.7531,0 37.746,12.218 46.0423,26.7969 l 6.9798,12.2656 0.051,208.5937 c 0.028,114.7266 1.0566,208.5938 2.2852,208.5938 1.2286,0 26.8926,-24.4818 57.0312,-54.404 46.3302,-45.9974 56.8902,-54.9601 68.3403,-58.0033 31.4583,-8.3611 61.6601,11.3567 67.7544,44.2348 4.5378,24.4804 1.456,28.412 -110.563,141.0509 -57.81,58.1301 -108.9065,107.7004 -113.5477,110.1563 -12.2642,6.4896 -39.553,5.7066 -50.9364,-1.4615 z"
         id="path51" /></g></g></svg>
