<?xml version="1.0" encoding="UTF-8" standalone="no"?>
<svg
   width="256"
   height="256"
   viewBox="0 0 799.9991 800"
   version="1.1"
   id="svg1"
   xml:space="preserve"
   sodipodi:docname="StreamController_Workspace.svg"
   inkscape:version="1.3.2 (091e20ef0f, 2023-11-25, custom)"
   inkscape:export-filename="Exported/cam_on.svg"
   inkscape:export-xdpi="96"
   inkscape:export-ydpi="96"
   xmlns:inkscape="http://www.inkscape.org/namespaces/inkscape"
   xmlns:sodipodi="http://sodipodi.sourceforge.net/DTD/sodipodi-0.dtd"
   xmlns="http://www.w3.org/2000/svg"
   xmlns:svg="http://www.w3.org/2000/svg"><sodipodi:namedview
     id="namedview1"
     pagecolor="#7f9ff3"
     bordercolor="#000000"
     borderopacity="0.25"
     inkscape:showpageshadow="true"
     inkscape:pageopacity="0.0"
     inkscape:pagecheckerboard="false"
     inkscape:deskcolor="#d1d1d1"
     inkscape:document-units="in"
     showguides="true"
     inkscape:lockguides="true"
     inkscape:zoom="2.8284271"
     inkscape:cx="141.0678"
     inkscape:cy="132.7593"
     inkscape:window-width="1920"
     inkscape:window-height="1013"
     inkscape:window-x="1920"
     inkscape:window-y="0"
     inkscape:window-maximized="1"
     inkscape:current-layer="layer4"
     showgrid="false"
     showborder="true"
     borderlayer="true"
     shape-rendering="auto"
     inkscape:clip-to-page="false"><sodipodi:guide
       position="0,800"
       orientation="0,256"
       inkscape:locked="true"
       id="guide1" /><sodipodi:guide
       position="799.9991,800"
       orientation="256,0"
       inkscape:locked="true"
       id="guide2" /><sodipodi:guide
       position="799.9991,0"
       orientation="0,-256"
       inkscape:locked="true"
       id="guide3" /><sodipodi:guide
       position="0,0"
       orientation="-256,0"
       inkscape:locked="true"
       id="guide4" /></sodipodi:namedview><defs
     id="defs1"><linearGradient
       id="swatch35"
       inkscape:swatch="solid"><stop
         style="stop-color:#000000;stop-opacity:1;"
         offset="0"
         id="stop35" /></linearGradient></defs><g
     inkscape:groupmode="layer"
     id="layer5"
     inkscape:label="ReplayBuffer"><g
       id="g15"
       inkscape:label="On"
       style="display:inline"><path
         id="path2"
         fill="none"
         stroke="#000000"
         stroke-width="0.527998"
         d="m 450.07736,192.49762 c 0,0 -9.76798,57.74981 -9.76798,57.74981 -0.80852,4.90052 -1.452,17.09397 -7.1115,18.57896 -4.20746,1.08899 -8.36545,-2.904 -11.17044,-5.47798 0,0 -23.09994,-23.00094 -23.09994,-23.00094 0,0 -82.49974,-82.49975 -82.49974,-82.49975 -6.46799,-6.46798 -27.10945,-23.64443 -25.50892,-32.93391 0.94048,-5.51098 6.17099,-8.06846 10.65897,-10.32895 0,0 31.34991,-14.915968 31.34991,-14.915968 0,0 87.44972,-42.883364 87.44972,-42.883364 0,0 46.13386,-21.565445 46.13386,-21.565445 10.88992,-2.32649 6.92998,11.12097 5.98947,17.02796 0,0 -9.22345,59.399807 -9.22345,59.399807 34.94684,4.93351 82.45022,26.21843 112.19966,45.07787 128.2541,81.26226 186.76291,235.96581 139.14405,380.62087 -16.30195,49.49984 -42.28935,89.03372 -77.20323,127.33008 -26.48245,29.05645 -64.08581,55.02736 -99.8907,71.16432 -37.57042,16.94547 -78.96877,29.20489 -120.44964,29.20489 0,0 0,-80.84974 0,-80.84974 31.23437,-2.52447 64.38281,-12.07797 92.39972,-26.0864 27.50539,-13.74448 52.32131,-33.51142 72.68226,-56.41335 68.49127,-77.05478 84.51274,-184.53546 38.18087,-277.19918 C 595.35939,274.51889 550.52906,230.8435 499.5772,207.85906 480.38774,199.21309 469.3163,197.5961 450.07736,192.49762 Z m -325.04908,49.49984 c 10.59302,7.59 37.00942,35.3429 47.84992,46.19987 3.10197,3.10198 15.62542,13.44747 9.09144,18.05095 -4.57046,3.21752 -17.42394,-3.28347 -22.2914,-5.16446 0,0 -57.74987,-21.13647 -57.74987,-21.13647 3.1515,-10.72496 16.38446,-27.86839 23.09991,-37.94989 z M 78.82844,347.59715 c 0,0 74.2498,31.3499 74.2498,31.3499 0,0 -4.28998,18.11695 -4.28998,18.11695 0,0 -22.10998,1.68299 -22.10998,1.68299 0,0 -57.749807,0 -57.749807,0 0.280506,-13.11743 4.900493,-39.20388 9.899967,-51.14984 z m -9.899967,125.39962 c 0,0 80.849787,0 80.849787,0 0,0 4.94999,28.04992 4.94999,28.04992 0,0 -74.249805,29.69991 -74.249805,29.69991 -5.741986,-15.36143 -10.790973,-41.34888 -11.549972,-57.74983 z m 36.299897,118.79964 c 0,0 75.8998,-31.3499 75.8998,-31.3499 0,0 19.79995,31.3499 19.79995,31.3499 0,0 -57.74984,56.09983 -57.74984,56.09983 -10.87349,-11.87995 -31.44893,-41.54686 -37.94991,-56.09983 z m 92.39974,-3.29999 c 0,0 -1.64999,0 -1.64999,0 0,0 1.64999,1.65001 1.64999,1.65001 z m -13.19996,98.99971 c 0,0 41.24989,-41.23337 41.24989,-41.23337 3.25045,-3.18451 12.07795,-12.82047 16.64842,-12.68848 4.00952,0.11551 13.94247,8.61298 18.00146,11.25297 4.57047,2.95347 15.54297,7.7385 16.54944,13.13397 0.77552,4.19099 -5.46146,16.76395 -7.30946,21.28493 0,0 -20.78994,51.14986 -20.78994,51.14986 -10.26297,-2.937 -19.10693,-9.09145 -28.04992,-14.7675 -12.39149,-7.87045 -27.24143,-16.51642 -36.29989,-28.13238 z m 140.24958,-13.19997 c 0,0 52.79985,11.54998 52.79985,11.54998 0,0 -1.65,44.54987 -1.65,44.54987 0,0 1.65,32.99988 1.65,32.99988 -9.5205,2.706 -19.99794,0.56102 -29.69991,-0.97347 0,0 -54.44984,-12.22648 -54.44984,-12.22648 z m -123.74961,23.09995 c 0,0 -1.65001,0 -1.65001,0 0,0 1.65001,1.64998 1.65001,1.64998 z"
         inkscape:label="Replay"
         style="display:inline;fill:#bae9ff;fill-opacity:1;stroke:none" /></g></g></svg>
