<?xml version="1.0" encoding="UTF-8" standalone="no"?>
<svg
   width="256"
   height="256"
   viewBox="0 0 799.9991 800"
   version="1.1"
   id="svg1"
   xml:space="preserve"
   xmlns="http://www.w3.org/2000/svg"
   xmlns:svg="http://www.w3.org/2000/svg"><defs
     id="defs1"><linearGradient
       id="swatch35"><stop
         style="stop-color:#000000;stop-opacity:1;"
         offset="0"
         id="stop35" /></linearGradient></defs><g
     id="layer4"><g
       id="g13"
       style="display:inline"><path
         id="path4"
         fill="none"
         stroke="#000000"
         stroke-width="0.465165"
         d="m 152.88093,207.44612 c 2.11997,-0.33753 20.30733,-37.60564 42.15552,-42.62069 6.36695,-1.46818 21.86273,-1.06116 29.07278,-0.98847 9.6667,0.11628 16.17901,1.58446 24.71186,6.26518 16.25169,8.92534 17.98152,16.64416 27.61915,30.07578 9.8702,-22.79306 27.18305,-36.29735 52.33099,-36.34096 h 143.91026 c 17.4146,0.0291 29.78506,4.49174 42.0247,17.4582 10.23362,10.87321 10.597,19.76948 16.42612,23.21461 3.02357,1.77344 7.86421,1.48271 11.32387,1.48271 h 87.21834 c 12.80653,0.0146 26.17901,0.37712 44.18203,13.07242 5.0133,3.45511 10.14043,7.48203 14.31239,13.09309 9.66668,13.01006 12.70481,26.23818 12.73388,42.15552 v 167.16848 126.46655 c -0.0727,43.30397 -29.01463,68.24841 -71.2283,68.32106 H 347.66854 170.32459 C 128.16906,636.1973 99.16896,611.17977 99.09628,567.94854 v -296.5423 c 0.30527,-25.75849 13.1409,-46.96708 36.34098,-58.49443 5.80002,-2.87821 16.66329,-4.00336 17.44367,-5.46569 z m 81.40378,1.45364 c -0.8072,-1.46058 -7.92233,-4.24463 -15.99003,-4.36092 -4.44814,-0.0581 -10.37899,-0.27619 -14.47825,1.46818 -12.93739,5.49475 -17.32737,33.68081 -24.24669,39.81517 -4.17195,3.70678 -13.50626,2.22072 -19.01555,2.96207 -6.26518,0.82857 -11.40716,2.66181 -15.99002,6.992 -1.282,1.8854 -3.28328,4.13168 -3.31236,18.53725 v 31.67785 52.63321 156.993 50.87739 c 0.0146,7.03555 -0.21804,12.73382 4.14288,18.76644 6.1925,8.5474 13.95493,8.83819 23.47627,8.85265 h 376.4925 88.67198 c 19.28976,-0.23259 24.68278,-9.68119 24.71185,-27.61909 V 322.2836 280.12806 c 0,-7.05014 0.93033,-15.59754 -2.92184,-21.74643 -5.95991,-9.53588 -14.63811,-10.21908 -24.6973,-10.23362 H 514.83702 c -3.29976,0 -8.22759,0.3198 -11.06219,-1.48271 -4.99314,-3.19837 -2.62685,-25.94918 -17.92056,-36.05524 -15.39403,-7.21005 -34.29415,-6.07122 -50.9674,-6.07122 h -97.3938 c -6.16343,0.0146 -11.89077,-0.37795 -16.96397,3.85215 -5.80001,4.82608 -11.29477,19.42061 -14.40556,26.67427 -1.55539,3.61956 -3.59049,9.41958 -6.992,11.60004 -2.8346,1.80251 -7.76244,1.48271 -11.06219,1.48271 H 260.4502 c -2.70377,-0.0581 -5.78548,0.0291 -8.15491,-1.48271 -7.90045,-5.03721 -4.28428,-26.82529 -18.01058,-37.76554 z m 423.00895,375.03882 h -1.45364 l 1.45364,1.45366 z m 1.45363,1.45366 h -1.45363 l 1.45363,1.45366 z"
         style="fill:#bae9ff;fill-opacity:1;stroke:#bae9ff;stroke-opacity:1" /><path
         style="fill:none;fill-opacity:1;fill-rule:nonzero;stroke:#bae9ff;stroke-width:46.875;stroke-linecap:round;stroke-linejoin:bevel;stroke-dasharray:none;stroke-opacity:1;paint-order:markers stroke fill"
         id="path5"
         d="M 524.84128,386.75178 A 129.34784,133.3869 0 0 1 434.77507,550.12906 129.34784,133.3869 0 0 1 275.67726,458.47222 129.34784,133.3869 0 0 1 363.36889,293.72693 129.34784,133.3869 0 0 1 523.77552,382.9249" /></g></g></svg>
